<svg width="406" height="257" viewBox="0 0 406 257" fill="none" xmlns="http://www.w3.org/2000/svg">
<g clip-path="url(#clip0)">
<path d="M358.911 169.765C356.944 186.631 352.858 200.173 347.249 210.973C339.786 225.363 327.02 231.16 315.616 237.227C312.321 238.977 308.895 240.468 305.369 241.687C284.618 248.897 261.392 246.985 243.148 243.178C230.353 240.506 217.364 238.862 204.306 238.262C200.582 238.094 196.854 238.01 193.122 238.012C187.368 238.019 83.7599 239.988 58.5341 188.861C52.3061 176.25 48.0371 160.844 46.5034 142.065C42.1635 88.9733 66.016 54.1046 96.7832 31.3133C154.985 -11.8001 234.764 -9.99204 292.107 34.257C330.304 63.7314 366.068 108.339 358.911 169.765Z" fill="#3F3D56"/>
<path d="M347.249 210.973C339.786 225.363 329.632 234.896 318.229 240.963C314.933 242.713 311.507 244.204 307.982 245.423C287.23 252.633 264.004 250.72 245.761 246.914C232.965 244.241 219.976 242.598 206.918 241.998C203.194 241.829 199.466 241.746 195.735 241.747C189.98 241.755 184.227 241.969 178.476 242.39C141.096 245.139 83.7599 239.988 58.5342 188.861L121.651 66.4808L145.141 126.857L152.638 146.129L173.3 117.745L183.969 103.09L232.554 158.853L246.287 128.493L341.361 206.165L346.664 210.495L347.249 210.973Z" fill="#F2F2F2"/>
<path opacity="0.1" d="M112.695 105.705L122.397 84.4119L135.831 115.418L124.263 93.004L112.695 105.705Z" fill="black"/>
<path opacity="0.1" d="M206.918 241.998C203.194 241.829 199.466 241.746 195.734 241.747L152.638 146.129L206.918 241.998Z" fill="black"/>
<path opacity="0.1" d="M173.3 117.745L183.969 109.441L232.48 165.476L183.222 117.659L173.3 117.745Z" fill="black"/>
<path opacity="0.1" d="M318.229 240.963C314.933 242.713 311.507 244.204 307.982 245.423L232.554 158.853L318.229 240.963Z" fill="black"/>
<path d="M179.864 39.2104C180.482 39.2104 180.983 38.7087 180.983 38.0898C180.983 37.4708 180.482 36.9691 179.864 36.9691C179.246 36.9691 178.744 37.4708 178.744 38.0898C178.744 38.7087 179.246 39.2104 179.864 39.2104Z" fill="#F2F2F2"/>
<path d="M148.892 77.6879C149.51 77.6879 150.011 77.1861 150.011 76.5672C150.011 75.9482 149.51 75.4465 148.892 75.4465C148.273 75.4465 147.772 75.9482 147.772 76.5672C147.772 77.1861 148.273 77.6879 148.892 77.6879Z" fill="#F2F2F2"/>
<path d="M224.643 84.0385C225.056 84.0385 225.39 83.704 225.39 83.2914C225.39 82.8788 225.056 82.5443 224.643 82.5443C224.231 82.5443 223.897 82.8788 223.897 83.2914C223.897 83.704 224.231 84.0385 224.643 84.0385Z" fill="#F2F2F2"/>
<path d="M67.9155 100.849C68.3276 100.849 68.6618 100.515 68.6618 100.102C68.6618 99.6892 68.3276 99.3547 67.9155 99.3547C67.5033 99.3547 67.1691 99.6892 67.1691 100.102C67.1691 100.515 67.5033 100.849 67.9155 100.849Z" fill="#F2F2F2"/>
<path d="M229.121 37.7162C229.534 37.7162 229.868 37.3817 229.868 36.9691C229.868 36.5564 229.534 36.2219 229.121 36.2219C228.709 36.2219 228.375 36.5564 228.375 36.9691C228.375 37.3817 228.709 37.7162 229.121 37.7162Z" fill="#F2F2F2"/>
<path d="M275.393 73.5786C275.806 73.5786 276.14 73.2441 276.14 72.8315C276.14 72.4189 275.806 72.0844 275.393 72.0844C274.981 72.0844 274.647 72.4189 274.647 72.8315C274.647 73.2441 274.981 73.5786 275.393 73.5786Z" fill="#F2F2F2"/>
<path d="M320.919 130.361C321.331 130.361 321.665 130.026 321.665 129.614C321.665 129.201 321.331 128.867 320.919 128.867C320.507 128.867 320.173 129.201 320.173 129.614C320.173 130.026 320.507 130.361 320.919 130.361Z" fill="#F2F2F2"/>
<path d="M114.188 45.2845H113.158V44.2535H112.605V45.2845H111.575V45.8378H112.605V46.8685H113.158V45.8378H114.188V45.2845Z" fill="#F2F2F2"/>
<path d="M316.441 158.475H315.411V157.444H314.859V158.475H313.829V159.029H314.859V160.059H315.411V159.029H316.441V158.475Z" fill="#F2F2F2"/>
<path d="M406 229.356C406 235.546 315.114 257 203 257C90.8862 257 0 235.546 0 229.356C0 223.167 90.8862 234.586 203 234.586C315.114 234.586 406 223.167 406 229.356Z" fill="#3F3D56"/>
<path opacity="0.1" d="M406 229.356C406 235.546 315.114 257 203 257C90.8862 257 0 235.546 0 229.356C0 223.167 90.8862 234.586 203 234.586C315.114 234.586 406 223.167 406 229.356Z" fill="black"/>
<path d="M203 240.563C315.114 240.563 406 235.546 406 229.356C406 223.167 315.114 218.149 203 218.149C90.8862 218.149 0 223.167 0 229.356C0 235.546 90.8862 240.563 203 240.563Z" fill="#3F3D56"/>
<path d="M211.956 213.666C211.956 226.045 206.443 222.632 199.642 222.632C192.841 222.632 187.327 226.045 187.327 213.666C187.327 201.287 199.642 177.804 199.642 177.804C199.642 177.804 211.956 201.287 211.956 213.666Z" fill="#FF6584"/>
<path opacity="0.1" d="M205.239 218.403C205.239 224.029 202.733 222.478 199.642 222.478C196.55 222.478 194.044 224.029 194.044 218.403C194.044 212.776 199.642 202.101 199.642 202.101C199.642 202.101 205.239 212.776 205.239 218.403Z" fill="black"/>
<path d="M213.449 225.994H185.835C183.98 225.994 182.476 227.499 182.476 229.356C182.476 231.213 183.98 232.718 185.835 232.718H213.449C215.303 232.718 216.807 231.213 216.807 229.356C216.807 227.499 215.303 225.994 213.449 225.994Z" fill="#2F2E41"/>
<path d="M213.449 219.27H185.835C183.98 219.27 182.476 220.775 182.476 222.632C182.476 224.489 183.98 225.994 185.835 225.994H213.449C215.303 225.994 216.807 224.489 216.807 222.632C216.807 220.775 215.303 219.27 213.449 219.27Z" fill="#2F2E41"/>
<path d="M51.1232 183.245C51.1232 203.919 64.0791 220.649 80.0902 220.649L51.1232 183.245Z" fill="#3F3D56"/>
<path d="M80.0902 220.649C80.0902 199.742 94.5483 182.825 112.416 182.825L80.0902 220.649Z" fill="#FA7268"/>
<path d="M61.6185 185.119C61.6185 204.758 69.8802 220.649 80.0902 220.649L61.6185 185.119Z" fill="#FA7268"/>
<path d="M80.0902 220.649C80.0902 193.935 96.8015 172.318 117.454 172.318L80.0902 220.649Z" fill="#3F3D56"/>
<path d="M73.9963 220.913C73.9963 220.913 78.1043 220.786 79.3423 219.903C80.5804 219.021 85.6615 217.967 85.9686 219.382C86.2757 220.798 92.1422 226.422 87.5043 226.46C82.8663 226.497 76.7278 225.736 75.4921 224.983C74.2565 224.229 73.9963 220.913 73.9963 220.913Z" fill="#A8A8A8"/>
<path opacity="0.2" d="M87.587 225.967C82.9491 226.004 76.8106 225.244 75.5749 224.49C74.6339 223.916 74.2589 221.857 74.1334 220.907C74.0465 220.911 73.9963 220.913 73.9963 220.913C73.9963 220.913 74.2565 224.229 75.4921 224.983C76.7278 225.736 82.8663 226.497 87.5043 226.46C88.8431 226.449 89.3055 225.972 89.2801 225.266C89.0941 225.692 88.5835 225.959 87.587 225.967Z" fill="black"/>
<path d="M269.21 196.893C269.21 211.099 278.112 222.595 289.114 222.595L269.21 196.893Z" fill="#3F3D56"/>
<path d="M289.114 222.595C289.114 208.229 299.049 196.604 311.327 196.604L289.114 222.595Z" fill="#FA7268"/>
<path d="M276.422 198.181C276.422 211.675 282.099 222.595 289.114 222.595L276.422 198.181Z" fill="#FA7268"/>
<path d="M289.114 222.595C289.114 204.238 300.597 189.384 314.788 189.384L289.114 222.595Z" fill="#3F3D56"/>
<path d="M284.927 222.776C284.927 222.776 287.75 222.689 288.6 222.083C289.451 221.476 292.943 220.752 293.154 221.725C293.365 222.697 297.396 226.562 294.209 226.588C291.022 226.613 286.804 226.091 285.955 225.573C285.106 225.055 284.927 222.776 284.927 222.776Z" fill="#A8A8A8"/>
<path opacity="0.2" d="M294.266 226.249C291.079 226.275 286.861 225.752 286.012 225.234C285.365 224.84 285.107 223.425 285.021 222.772C284.961 222.775 284.927 222.776 284.927 222.776C284.927 222.776 285.106 225.055 285.955 225.573C286.804 226.091 291.022 226.613 294.209 226.588C295.129 226.58 295.447 226.253 295.429 225.767C295.301 226.061 294.95 226.244 294.266 226.249Z" fill="black"/>
<path d="M333.537 231.126C333.537 231.126 337.776 230.48 338.948 229.411C340.12 228.341 345.251 226.613 345.746 228.041C346.241 229.468 353.02 234.558 348.221 235.178C343.422 235.798 336.969 235.78 335.595 235.154C334.221 234.528 333.537 231.126 333.537 231.126Z" fill="#A8A8A8"/>
<path opacity="0.2" d="M348.245 234.658C343.446 235.278 336.993 235.259 335.619 234.633C334.573 234.157 333.927 232.071 333.678 231.103C333.589 231.118 333.537 231.126 333.537 231.126C333.537 231.126 334.221 234.528 335.595 235.154C336.969 235.78 343.422 235.798 348.221 235.178C349.606 234.999 350.026 234.448 349.911 233.719C349.772 234.185 349.276 234.525 348.245 234.658Z" fill="black"/>
<path d="M229.218 230.819C229.218 230.819 232.796 230.273 233.785 229.371C234.774 228.469 239.104 227.01 239.522 228.215C239.94 229.42 245.661 233.716 241.611 234.239C237.561 234.762 232.115 234.746 230.955 234.218C229.796 233.69 229.218 230.819 229.218 230.819Z" fill="#A8A8A8"/>
<path opacity="0.2" d="M241.631 233.799C237.581 234.323 232.135 234.307 230.976 233.779C230.093 233.377 229.547 231.616 229.338 230.799C229.262 230.812 229.218 230.818 229.218 230.818C229.218 230.818 229.796 233.69 230.955 234.218C232.115 234.746 237.561 234.762 241.611 234.239C242.78 234.088 243.134 233.622 243.037 233.007C242.92 233.4 242.502 233.687 241.631 233.799Z" fill="black"/>
<path d="M45.6709 229.03C45.6709 229.03 48.456 228.606 49.2259 227.903C49.9959 227.201 53.367 226.066 53.6923 227.003C54.0176 227.941 58.4716 231.286 55.3186 231.693C52.1656 232.1 47.9259 232.088 47.0232 231.677C46.1204 231.266 45.6709 229.03 45.6709 229.03Z" fill="#A8A8A8"/>
<path opacity="0.2" d="M55.3345 231.351C52.1815 231.758 47.9418 231.746 47.039 231.335C46.3515 231.022 45.9272 229.651 45.7638 229.015C45.705 229.025 45.6709 229.03 45.6709 229.03C45.6709 229.03 46.1204 231.266 47.0232 231.677C47.9259 232.088 52.1656 232.1 55.3186 231.693C56.2288 231.575 56.5043 231.213 56.429 230.734C56.3375 231.04 56.0119 231.263 55.3345 231.351Z" fill="black"/>
<path opacity="0.1" d="M143.181 224.633C143.181 235.922 127.462 232.43 108.216 232.43C88.9693 232.43 73.4839 235.922 73.4839 224.633C73.4839 213.343 89.2007 210.888 108.447 210.888C127.693 210.888 143.181 213.343 143.181 224.633Z" fill="black"/>
<path d="M143.181 221.853C143.181 233.142 127.462 229.651 108.216 229.651C88.9693 229.651 73.4839 233.142 73.4839 221.853C73.4839 210.564 89.2007 208.108 108.447 208.108C127.693 208.108 143.181 210.564 143.181 221.853Z" fill="#3F3D56"/>
<path d="M146.177 170.13C145.25 170.605 144.368 171.164 143.544 171.801C142.716 172.443 142.082 173.302 141.713 174.283C141.249 173.195 140.87 172.074 140.579 170.928C139.926 168.871 139.152 166.855 138.263 164.889C139.722 164.332 140.988 163.361 141.904 162.094C143.695 163.879 145.536 165.741 146.427 168.108C146.581 168.516 147.027 168.951 147.131 169.316C147.278 169.833 146.569 169.915 146.177 170.13Z" fill="#FFBFC5"/>
<path d="M163.031 213.646C164.988 214.264 166.812 215.242 168.412 216.528C168.532 216.603 168.619 216.722 168.656 216.859C168.697 217.169 168.283 217.296 167.983 217.383C167.099 217.637 166.535 218.468 165.885 219.118C165.234 219.768 164.189 220.278 163.431 219.759C163.231 219.606 163.057 219.422 162.915 219.215L159.71 215.027C160.797 214.419 161.939 213.916 163.122 213.527" fill="#F1F1F1"/>
<path d="M168.793 214.517C169.218 214.951 169.402 215.574 169.818 216.015C170.099 216.283 170.418 216.505 170.767 216.674L173.219 218.025C173.596 218.248 173.993 218.436 174.404 218.586C174.866 218.715 175.336 218.813 175.812 218.88C176.491 219.007 177.156 219.204 177.796 219.466C178.277 219.663 178.813 220.003 178.811 220.523C178.791 220.778 178.688 221.018 178.517 221.207C177.55 222.426 175.838 222.696 174.292 222.86C170.944 223.214 167.518 223.48 164.245 222.69C163.606 222.572 163.003 222.311 162.479 221.925C161.492 221.106 161.295 219.614 161.664 218.384C161.768 217.912 162.047 217.498 162.444 217.223C162.962 216.926 163.608 217.064 164.204 217.018C164.838 216.931 165.451 216.735 166.018 216.439C166.393 216.27 166.823 216.052 166.904 215.607C166.978 215.193 166.493 214.779 166.595 214.41C166.821 213.592 168.402 214.118 168.793 214.517Z" fill="#575A89"/>
<path opacity="0.1" d="M168.793 214.517C169.218 214.951 169.402 215.574 169.818 216.015C170.099 216.283 170.418 216.505 170.767 216.674L173.219 218.025C173.596 218.248 173.993 218.436 174.404 218.586C174.866 218.715 175.336 218.813 175.812 218.88C176.491 219.007 177.156 219.204 177.796 219.466C178.277 219.663 178.813 220.003 178.811 220.523C178.791 220.778 178.688 221.018 178.517 221.207C177.55 222.426 175.838 222.696 174.292 222.86C170.944 223.214 167.518 223.48 164.245 222.69C163.606 222.572 163.003 222.311 162.479 221.925C161.492 221.106 161.295 219.614 161.664 218.384C161.768 217.912 162.047 217.498 162.444 217.223C162.962 216.926 163.608 217.064 164.204 217.018C164.838 216.931 165.451 216.735 166.018 216.439C166.393 216.27 166.823 216.052 166.904 215.607C166.978 215.193 166.493 214.779 166.595 214.41C166.821 213.592 168.402 214.118 168.793 214.517Z" fill="black"/>
<path d="M174.483 227.927C174.827 228.154 175.17 228.381 175.513 228.608C175.829 228.776 176.089 229.033 176.262 229.347C176.485 229.873 176.183 230.467 175.847 230.929C174.839 232.309 173.463 233.377 171.877 234.009C171.327 234.239 170.745 234.384 170.152 234.44C170.016 234.461 169.878 234.443 169.751 234.389C169.437 234.224 169.482 233.774 169.479 233.419C169.468 232.387 168.689 231.549 167.99 230.792C167.291 230.034 166.578 229.101 166.738 228.082C166.883 227.482 167.19 226.933 167.626 226.496C168.013 226.01 168.468 225.58 168.976 225.221C169.703 224.745 169.96 225.001 170.644 225.438C171.93 226.258 173.21 227.088 174.483 227.927Z" fill="#F1F1F1"/>
<path d="M171.135 232.953C171.415 233.024 171.708 233.027 171.99 232.964C172.272 232.9 172.535 232.771 172.758 232.586C173.2 232.213 173.559 231.751 173.812 231.23C174.062 230.767 174.28 230.286 174.464 229.792C174.68 229.214 174.879 228.574 175.387 228.224C176.002 227.798 176.869 227.965 177.494 228.375C178.083 228.836 178.625 229.355 179.11 229.925C180.409 231.137 181.984 232.015 183.698 232.48C185.405 232.942 187.135 233.312 188.881 233.59C189.23 233.636 189.568 233.745 189.879 233.911C190.581 234.34 190.815 235.297 190.619 236.096C190.372 236.885 189.927 237.598 189.328 238.167C188.856 238.727 188.271 239.18 187.611 239.497C187.053 239.701 186.466 239.813 185.872 239.827C182.996 240.023 180.107 239.796 177.297 239.155C176.264 238.874 175.214 238.664 174.153 238.527C173.506 238.47 172.855 238.488 172.207 238.444C170.92 238.355 169.66 238.023 168.497 237.464C168.213 237.36 167.974 237.161 167.82 236.902C167.736 236.663 167.719 236.405 167.77 236.157L168.2 232.392C168.237 232.064 168.346 231.656 168.672 231.605C168.981 231.557 169.207 231.874 169.401 232.12C169.78 232.574 170.298 232.888 170.874 233.014C171.45 233.14 172.052 233.071 172.584 232.817" fill="#575A89"/>
<path d="M146.23 185.471C148.117 185.258 150.306 185.222 151.582 186.63C152.365 187.494 152.602 188.703 152.873 189.838C153.297 191.742 153.985 193.577 154.918 195.29C155.518 196.351 156.246 197.347 156.707 198.476C157.179 199.633 157.352 200.885 157.628 202.104C158.735 206.92 161.436 211.221 165.292 214.306C164.611 216.16 162.642 217.219 160.726 217.693C160.32 217.865 159.868 217.896 159.443 217.78C159.017 217.664 158.643 217.408 158.38 217.053C157.484 216.085 156.649 215.061 155.881 213.988C153.12 210.297 150.317 206.528 148.813 202.17C148.285 200.64 147.757 198.855 146.273 198.216C145.426 197.851 144.457 197.965 143.549 198.119C141.517 198.464 139.519 198.978 137.573 199.655C135.499 200.378 133.123 201.267 131.225 200.161C130.088 199.5 129.412 198.23 129.163 196.938C128.975 195.634 128.973 194.309 129.158 193.005C129.17 192.414 129.312 191.834 129.572 191.304C129.835 190.908 130.172 190.567 130.564 190.299C132.26 189.01 134.146 187.993 136.154 187.284C138.072 186.607 140.134 186.378 142.136 186.043C143.495 185.816 144.859 185.625 146.23 185.471Z" fill="#575A89"/>
<path opacity="0.1" d="M146.23 185.471C148.117 185.258 150.306 185.222 151.582 186.63C152.365 187.494 152.602 188.703 152.873 189.838C153.297 191.742 153.985 193.577 154.918 195.29C155.518 196.351 156.246 197.347 156.707 198.476C157.179 199.633 157.352 200.885 157.628 202.104C158.735 206.92 161.436 211.221 165.292 214.306C164.611 216.16 162.642 217.219 160.726 217.693C160.32 217.865 159.868 217.896 159.443 217.78C159.017 217.664 158.643 217.408 158.38 217.053C157.484 216.085 156.649 215.061 155.881 213.988C153.12 210.297 150.317 206.528 148.813 202.17C148.285 200.64 147.757 198.855 146.273 198.216C145.426 197.851 144.457 197.965 143.549 198.119C141.517 198.464 139.519 198.978 137.573 199.655C135.499 200.378 133.123 201.267 131.225 200.161C130.088 199.5 129.412 198.23 129.163 196.938C128.975 195.634 128.973 194.309 129.158 193.005C129.17 192.414 129.312 191.834 129.572 191.304C129.835 190.908 130.172 190.567 130.564 190.299C132.26 189.01 134.146 187.993 136.154 187.284C138.072 186.607 140.134 186.378 142.136 186.043C143.495 185.816 144.859 185.625 146.23 185.471Z" fill="black"/>
<path d="M157.034 199.096C157.91 199.538 158.714 200.11 159.419 200.792C160.147 201.65 160.7 202.644 161.047 203.715C161.202 204.073 161.297 204.454 161.329 204.842C161.343 205.037 161.313 205.232 161.24 205.413C161.168 205.595 161.055 205.757 160.911 205.888C160.562 206.113 160.147 206.214 159.733 206.176C159.186 206.181 158.639 206.166 158.092 206.133C157.76 206.131 157.431 206.068 157.121 205.949C156.836 205.804 156.58 205.609 156.363 205.375C155.401 204.481 154.614 203.416 154.04 202.234C153.643 201.359 152.991 199.344 153.615 198.433C154.257 197.496 156.355 198.71 157.034 199.096Z" fill="#FFBFC5"/>
<path d="M130.572 198.783C133.363 199.679 136.335 199.781 139.253 200.054C144.162 200.513 149.011 201.473 153.725 202.918C154.709 203.158 155.637 203.59 156.454 204.189C157.085 204.773 157.619 205.454 158.037 206.205C158.803 207.375 159.498 208.591 160.116 209.846C160.646 210.98 161.05 212.168 161.544 213.319C163.201 217.171 165.821 220.531 169.152 223.075C169.761 223.539 170.439 224.043 170.596 224.793C170.666 225.275 170.587 225.768 170.37 226.204C169.65 227.882 168.157 229.102 166.589 230.037C165.915 230.438 165.174 230.846 164.843 231.558C162.46 230.573 160.689 228.474 159.215 226.358C157.741 224.241 156.434 221.967 154.544 220.212C153.712 219.438 152.767 218.765 152.112 217.836C151.113 216.419 150.843 214.479 149.498 213.385C148.143 212.283 146.2 212.433 144.463 212.604C135.566 213.476 126.601 213.379 117.725 212.314C115.88 212.093 113.984 211.811 112.385 210.861C110.787 209.912 109.542 208.132 109.769 206.285C109.981 204.556 111.419 203.186 113.022 202.509C114.625 201.833 116.397 201.711 118.126 201.516C122.368 201.102 126.546 200.185 130.572 198.783Z" fill="#575A89"/>
<path d="M105.049 202.373C105.268 200.907 105.837 199.519 106.194 198.081C106.373 197.176 106.599 196.281 106.872 195.399C106.881 195.375 106.891 195.35 106.9 195.326C106.991 195.318 107.079 195.291 107.158 195.246C107.237 195.2 107.305 195.138 107.358 195.064C107.406 194.935 107.42 194.796 107.396 194.661C107.389 194.518 107.393 194.374 107.409 194.231C107.993 193.251 108.631 192.304 109.32 191.395C110.529 189.681 111.576 187.859 112.621 186.04C113.477 184.549 114.335 183.055 115.045 181.488C115.576 180.313 116.024 179.099 116.612 177.951C118.704 173.865 122.466 170.856 126.512 168.694C130.393 166.619 134.588 165.221 138.669 163.572C138.774 163.675 138.869 163.787 138.953 163.908C141.158 166.925 141.396 170.889 142.303 174.515C142.669 175.979 143.159 177.438 143.158 178.947C143.157 181.175 142.093 183.247 141.036 185.208C140.092 187.081 138.976 188.863 137.704 190.532C137.08 191.305 136.392 192.026 135.764 192.796C133.192 195.954 131.707 199.836 130.263 203.645C129.427 205.851 128.061 207.807 127.142 209.979C126.789 210.814 126.585 211.714 126.141 212.504C125.698 213.294 124.926 213.99 124.02 213.994C123.755 213.986 123.492 213.945 123.238 213.871C119.96 213.027 117.215 210.856 114.491 208.845C114.004 208.486 113.515 208.13 113.005 207.806C112.49 207.48 111.955 207.186 111.42 206.893C111.015 206.67 110.61 206.448 110.204 206.226C108.876 205.497 107.546 204.767 106.162 204.151C105.746 203.984 105.346 203.778 104.968 203.538C104.964 203.148 104.991 202.758 105.049 202.373Z" fill="#FA7268"/>
<path d="M147.906 169.88C152.077 169.88 155.459 166.495 155.459 162.319C155.459 158.143 152.077 154.758 147.906 154.758C143.735 154.758 140.354 158.143 140.354 162.319C140.354 166.495 143.735 169.88 147.906 169.88Z" fill="#FFBFC5"/>
<path d="M152.987 158.781C153.169 159.101 153.446 159.356 153.779 159.513C154.111 159.67 154.484 159.72 154.847 159.657C155.207 159.584 155.548 159.436 155.847 159.223C156.146 159.009 156.397 158.735 156.582 158.417C156.95 157.779 157.169 157.066 157.225 156.332C157.284 156.05 157.287 155.759 157.233 155.476C157.179 155.193 157.069 154.924 156.911 154.683C156.629 154.41 156.306 154.184 155.953 154.012C155.466 153.708 155.058 153.294 154.76 152.803C154.548 152.454 154.397 152.072 154.207 151.71C153.52 150.404 152.183 149.342 150.709 149.39C150.001 149.413 149.327 149.682 148.629 149.805C146.287 150.216 143.742 148.976 141.57 149.943C141.036 150.203 140.539 150.535 140.093 150.929C139.482 151.434 138.894 151.966 138.33 152.525C137.84 152.943 137.469 153.483 137.255 154.091C136.96 155.2 137.662 156.439 137.215 157.497C137.063 157.799 136.88 158.086 136.671 158.353C136.178 159.076 136.713 161.901 136.659 162.775C136.596 163.203 136.705 163.638 136.961 163.986C137.317 164.384 137.917 164.419 138.45 164.425L139.431 164.437C139.577 164.447 139.724 164.432 139.866 164.392C140.058 164.306 140.227 164.176 140.359 164.011C141.175 163.151 141.351 160.338 142.536 160.348C142.716 160.338 142.894 160.384 143.047 160.481C143.261 160.638 143.325 160.927 143.477 161.146C143.651 161.352 143.886 161.496 144.148 161.557C144.41 161.618 144.685 161.593 144.932 161.486C145.421 161.26 145.847 160.916 146.17 160.484C146.493 160.054 146.884 159.68 147.329 159.377C147.96 159.008 148.673 158.848 149.288 158.431C149.801 158.083 150.093 157.578 150.554 157.193C150.738 157.034 150.97 156.941 151.213 156.927C151.455 156.914 151.696 156.981 151.897 157.118C152.623 157.498 152.655 158.12 152.987 158.781Z" fill="#2F2E41"/>
<path opacity="0.1" d="M135.536 172.103C137.3 171.852 139.098 171.996 140.799 172.526C141.367 172.656 141.88 172.96 142.266 173.397C142.485 173.728 142.628 174.103 142.684 174.497C143.03 176.305 142.808 178.176 142.047 179.852C141.992 179.936 141.956 180.03 141.941 180.129C141.926 180.228 141.932 180.329 141.959 180.425C142.035 180.541 142.135 180.641 142.252 180.716C142.359 180.818 142.442 180.942 142.497 181.078C142.551 181.215 142.577 181.362 142.571 181.509C142.565 181.656 142.528 181.8 142.462 181.932C142.396 182.063 142.303 182.18 142.19 182.273C142.049 182.376 141.864 182.465 141.836 182.638C141.806 182.826 141.983 182.973 142.12 183.104C142.321 183.302 142.469 183.546 142.551 183.816C142.633 184.085 142.646 184.371 142.588 184.647C142.514 184.869 142.463 185.098 142.437 185.331C142.465 185.615 142.549 185.891 142.683 186.144C142.913 186.713 142.991 187.332 142.911 187.94C142.838 188.228 142.831 188.528 142.89 188.819C142.973 189.012 143.085 189.19 143.223 189.347C143.766 190.08 143.885 191.306 143.098 191.766C143.435 191.939 143.71 192.213 143.884 192.55C144.057 192.887 144.122 193.269 144.068 193.645C144.538 193.393 145.109 193.715 145.5 194.077C145.892 194.439 146.292 194.881 146.825 194.908C147.196 194.927 147.587 194.734 147.926 194.887C148.441 195.12 148.423 195.956 148.93 196.206C149.374 196.426 149.993 196.067 150.371 196.387C150.503 196.499 150.57 196.671 150.697 196.788C150.985 197.051 151.433 196.939 151.823 196.924C152.284 196.937 152.735 197.07 153.129 197.311C153.523 197.552 153.848 197.892 154.07 198.297C154.505 199.113 154.767 200.01 154.841 200.932C154.94 201.433 154.93 201.949 154.812 202.446C154.748 202.693 154.613 202.916 154.423 203.087C154.234 203.258 153.998 203.369 153.746 203.407C149.111 203.707 144.537 202.595 140.024 201.495C138.699 201.172 137.351 200.794 136.245 199.993C135.241 199.266 134.502 198.237 133.782 197.228C132.453 195.366 131.117 193.489 130.166 191.408C128.943 188.73 128.397 185.801 127.863 182.905C127.678 182.129 127.613 181.329 127.668 180.533C127.829 179.602 128.184 178.716 128.712 177.932C129.349 176.893 130.055 175.898 130.823 174.952C131.991 173.455 133.669 172.441 135.536 172.103Z" fill="black"/>
<path d="M135.842 171.797C137.606 171.546 139.403 171.691 141.105 172.22C141.672 172.35 142.185 172.654 142.571 173.091C142.791 173.422 142.933 173.798 142.989 174.191C143.336 175.999 143.114 177.87 142.352 179.546C142.298 179.63 142.262 179.724 142.247 179.823C142.232 179.922 142.238 180.023 142.264 180.119C142.341 180.235 142.441 180.335 142.558 180.41C142.664 180.512 142.747 180.636 142.802 180.772C142.857 180.909 142.882 181.056 142.876 181.203C142.871 181.35 142.833 181.494 142.768 181.626C142.702 181.758 142.609 181.874 142.495 181.967C142.354 182.07 142.17 182.159 142.142 182.332C142.112 182.52 142.288 182.667 142.426 182.799C142.627 182.996 142.775 183.24 142.857 183.51C142.939 183.779 142.951 184.065 142.894 184.341C142.82 184.563 142.769 184.792 142.742 185.025C142.771 185.309 142.854 185.585 142.989 185.838C143.218 186.407 143.297 187.026 143.216 187.634C143.143 187.922 143.136 188.223 143.196 188.513C143.278 188.706 143.391 188.884 143.529 189.041C144.072 189.774 144.191 191 143.404 191.46C143.741 191.633 144.015 191.907 144.189 192.244C144.363 192.581 144.428 192.964 144.374 193.339C144.844 193.087 145.414 193.409 145.806 193.771C146.198 194.133 146.598 194.576 147.13 194.602C147.501 194.621 147.893 194.428 148.231 194.581C148.746 194.814 148.729 195.65 149.235 195.9C149.68 196.12 150.298 195.761 150.677 196.082C150.809 196.193 150.876 196.365 151.003 196.482C151.29 196.745 151.739 196.633 152.128 196.618C152.59 196.631 153.04 196.765 153.435 197.005C153.829 197.246 154.153 197.586 154.376 197.991C154.811 198.807 155.073 199.704 155.146 200.626C155.246 201.127 155.236 201.643 155.117 202.14C155.054 202.387 154.919 202.61 154.729 202.781C154.54 202.952 154.304 203.063 154.052 203.101C149.417 203.402 144.843 202.289 140.33 201.189C139.005 200.866 137.656 200.488 136.551 199.687C135.546 198.96 134.808 197.932 134.087 196.922C132.759 195.06 131.423 193.183 130.472 191.103C129.249 188.425 128.703 185.495 128.168 182.599C127.984 181.823 127.919 181.023 127.974 180.227C128.134 179.296 128.49 178.41 129.017 177.626C129.655 176.587 130.36 175.592 131.129 174.646C132.297 173.149 133.975 172.135 135.842 171.797Z" fill="#FA7268"/>
</g>
<defs>
<clipPath id="clip0">
<rect width="406" height="257" fill="white"/>
</clipPath>
</defs>
</svg>
