<svg width="413" height="229" viewBox="0 0 413 229" fill="none" xmlns="http://www.w3.org/2000/svg">
<path d="M381.334 183.014C380.874 184.006 380.416 184.984 379.958 185.949C379.244 187.448 378.54 188.917 377.844 190.358C377.535 190.997 377.226 191.623 376.924 192.25C373.513 199.217 370.329 205.379 367.624 210.446C365.171 215.04 361.527 218.89 357.074 221.592C352.622 224.294 347.524 225.749 342.316 225.804L282.17 226.458H281.535L276.379 226.514L271.969 226.561L258.456 226.716H257.909L251.024 226.791H250.813L208.376 227.251L170.496 227.648L166.089 227.695L138.723 227.993H138.679L120.931 228.183H120.741L64.62 228.79L47.8314 228.972C46.4019 228.989 44.9727 228.917 43.552 228.758C43.0681 228.703 42.5842 228.639 42.1043 228.564C34.2744 227.355 27.095 223.501 21.7621 217.643C14.5398 209.665 9.28469 200.426 5.75485 190.358C5.24454 188.907 4.76861 187.437 4.32704 185.949C-7.89257 144.634 7.00418 91.3565 33.8151 55.7125C34.9389 54.2215 36.0811 52.7676 37.2419 51.3506L37.2696 51.3189C45.5152 41.1995 54.7602 32.7454 64.6081 26.7341C82.059 16.0634 101.394 13.0577 120.411 22.0154C136.502 29.597 151.526 33.1618 166.089 34.1293C167.561 34.2245 169.032 34.2959 170.496 34.3395C203.902 35.3903 235.211 23.3556 271.977 15.5876C273.44 15.2783 274.908 14.973 276.387 14.6835C302.615 9.46518 331.71 6.71326 366.311 12.4986C369.906 13.0858 373.453 13.9339 376.924 15.0364C378.45 15.5281 379.92 16.0568 381.334 16.6225C397.849 23.3398 406.856 35.7511 410.684 51.3031C411.046 52.7464 411.359 54.2149 411.624 55.7085C418.41 93.1171 398.536 146.181 381.334 183.014Z" fill="#F2F2F2"/>
<path opacity="0.1" d="M197.124 185.949C196.964 187.432 196.717 188.904 196.382 190.358H233.545V185.949H197.124ZM166.089 210.855L170.496 210.819V199.926C168.984 199.859 167.513 199.792 166.089 199.72V210.855ZM73.7103 185.949V190.358H152.438V185.949H73.7103ZM410.704 51.307H381.354V16.6265C379.94 16.0502 378.47 15.5215 376.944 15.0404V51.3229H276.387V14.6716C274.908 14.9611 273.44 15.2664 271.977 15.5757V51.307H170.496V34.3276C169.032 34.284 167.561 34.2126 166.089 34.1175V51.307H64.6081V26.7222C54.7602 32.7336 45.5152 41.1876 37.2696 51.307H37.2419V51.3388C36.0785 52.7663 34.9362 54.2202 33.8151 55.7006H37.2419V185.949H4.32306C4.76198 187.437 5.23791 188.907 5.75086 190.358H37.2379V227.481C38.8221 227.966 40.4392 228.335 42.0766 228.588C42.5565 228.663 43.0403 228.726 43.5242 228.782C44.9449 228.941 46.3741 229.012 47.8036 228.996L64.5922 228.814V190.35H166.089V227.707L170.496 227.66V190.358H271.977V226.565L276.387 226.518V190.358H376.924V192.25C377.226 191.623 377.535 190.997 377.844 190.358C378.54 188.92 379.244 187.45 379.958 185.949C380.416 184.984 380.874 184.006 381.334 183.014V55.7283H411.644C411.377 54.2242 411.063 52.7504 410.704 51.307ZM64.6081 185.949V55.7125H166.089V185.949H64.6081ZM170.503 185.949V55.7125H271.977V185.949H170.503ZM376.932 185.949H276.387V55.7125H376.924L376.932 185.949Z" fill="black"/>
<path d="M331.064 140.007C325.569 129.86 317.78 121.136 308.318 114.53C307.642 114.063 306.862 113.769 306.046 113.673C307.16 106.345 306.926 98.2482 302.79 92.1416C292.973 77.6524 242.961 92.6055 242.961 92.6055C207.904 80.4559 177.52 95.8769 177.52 95.8769C177.52 95.8769 138.723 89.8021 120.963 94.4772C112.586 96.6819 110.552 105.223 110.742 113.637H110.714C109.972 113.636 109.238 113.802 108.569 114.124C107.899 114.445 107.311 114.913 106.847 115.493C102.124 121.394 87.8535 139.567 88.2422 143.076C88.7102 147.283 104.134 201.957 103.436 228.362L318.912 225.982C318.912 225.982 322.481 172.847 331.409 143.762C331.796 142.514 331.672 141.163 331.064 140.007Z" fill="#3F3D56"/>
<path opacity="0.1" d="M106.244 143.314L115.125 125.553L122.601 160.135L122.688 176.186L106.244 143.314Z" fill="black"/>
<path opacity="0.1" d="M310.032 143.314L301.151 125.553L290.851 158.342L292.834 176.979L310.032 143.314Z" fill="black"/>
<path d="M121.95 159.191L290.867 158.267L292.739 176.96L122.601 176.492L121.95 159.191Z" fill="#3F3D56"/>
<path opacity="0.1" d="M121.95 159.191L290.867 158.267L292.739 176.96L122.601 176.492L121.95 159.191Z" fill="black"/>
<path opacity="0.1" d="M289.475 175.139H126.047C123.754 175.139 121.895 176.998 121.895 179.291V191.084C121.895 193.377 123.754 195.236 126.047 195.236H289.475C291.769 195.236 293.628 193.377 293.628 191.084V179.291C293.628 176.998 291.769 175.139 289.475 175.139Z" fill="white"/>
<path d="M258.484 107.912C258.484 107.912 257.913 107.119 257.239 107.547C256.917 107.757 255.406 109.66 253.923 111.595C253.193 112.543 252.467 113.499 251.892 114.26C251.182 115.196 250.702 115.846 250.702 115.846L250.417 116.382L248.684 119.621L247.054 122.667L246.657 124.102L252.162 125.974L258.428 124.265L258.159 123.103L258.111 122.904L258.163 120.232L258.305 112.698L258.373 109.307V108.911L258.484 107.912Z" fill="#FFE09C"/>
<path d="M245.88 126.485C245.88 126.485 251.829 128.606 254.879 127.496C254.879 127.496 257.516 126.656 258.555 125.843C258.555 125.843 259.662 125.264 258.159 123.376C258.159 123.376 254.308 125.736 250.663 124.808L247.018 123.876L245.88 126.485Z" fill="#E7C4C3"/>
<path d="M252.515 123.801C253.443 123.257 253.822 122.179 253.361 121.393C252.901 120.607 251.775 120.411 250.847 120.955C249.919 121.498 249.54 122.576 250.001 123.362C250.462 124.148 251.587 124.345 252.515 123.801Z" fill="#FF7F8E"/>
<path d="M256.472 119.059C257.4 118.515 257.778 117.437 257.318 116.651C256.857 115.865 255.731 115.669 254.803 116.212C253.875 116.756 253.497 117.834 253.957 118.62C254.418 119.406 255.544 119.602 256.472 119.059Z" fill="#FF7F8E"/>
<path d="M258.159 120.232C257.86 120.107 257.536 120.056 257.213 120.081C256.89 120.107 256.578 120.209 256.303 120.379C255.374 120.922 254.994 122 255.458 122.786C255.922 123.571 257.044 123.769 257.968 123.226C258.032 123.186 258.095 123.146 258.155 123.103L258.107 122.905L258.159 120.232Z" fill="#FF7F8E"/>
<path d="M251.428 117.087C251.318 116.905 251.171 116.748 250.996 116.627C250.821 116.505 250.622 116.421 250.413 116.382L248.68 119.621C248.983 119.758 249.315 119.818 249.647 119.796C249.979 119.774 250.301 119.67 250.583 119.494C251.511 118.951 251.888 117.873 251.428 117.087Z" fill="#FF7F8E"/>
<path d="M255.283 112.341C255.14 112.112 254.941 111.923 254.704 111.793C254.467 111.662 254.201 111.594 253.931 111.595C253.201 112.543 252.475 113.499 251.9 114.26L251.924 114.308C252.384 115.101 253.51 115.287 254.438 114.744C255.367 114.201 255.735 113.126 255.283 112.341Z" fill="#FF7F8E"/>
<path d="M258.369 109.303C258.164 109.355 257.968 109.435 257.786 109.541C256.858 110.085 256.481 111.163 256.941 111.948C257.085 112.179 257.286 112.368 257.524 112.499C257.762 112.629 258.03 112.696 258.301 112.694L258.369 109.303Z" fill="#FF7F8E"/>
<path d="M249.132 122.306L248.815 121.77C249.29 121.629 249.728 121.385 250.1 121.057C250.123 121.033 250.143 121.005 250.163 120.981C250.56 120.482 250.476 121.521 250.476 121.521C250.476 121.521 249.501 122.349 249.132 122.306Z" fill="#94CC79"/>
<path d="M253.812 121.477L253.495 120.938C253.969 120.795 254.408 120.552 254.78 120.224C254.78 120.2 254.823 120.176 254.843 120.149C255.24 119.653 255.156 120.688 255.156 120.688C255.156 120.688 254.181 121.521 253.812 121.477Z" fill="#94CC79"/>
<path d="M253.384 119.256L253.066 118.717C253.541 118.576 253.979 118.333 254.351 118.007C254.371 117.98 254.395 117.956 254.415 117.932C254.811 117.432 254.728 118.467 254.728 118.467C254.728 118.467 253.752 119.292 253.384 119.256Z" fill="#94CC79"/>
<path d="M253.951 115.251L253.633 114.712C254.108 114.569 254.546 114.326 254.918 113.998C254.918 113.975 254.962 113.951 254.982 113.923C255.378 113.423 255.295 114.462 255.295 114.462C255.295 114.462 254.319 115.291 253.951 115.251Z" fill="#94CC79"/>
<path d="M256.636 110.406L256.322 109.867C256.796 109.724 257.233 109.481 257.603 109.153C257.627 109.13 257.648 109.104 257.667 109.078C258.064 108.582 257.984 109.617 257.984 109.617C257.984 109.617 257.005 110.446 256.636 110.406Z" fill="#94CC79"/>
<path d="M256.334 115.351L256.017 114.811C256.492 114.671 256.93 114.429 257.302 114.102C257.302 114.074 257.346 114.05 257.365 114.026C257.762 113.527 257.679 114.561 257.679 114.561C257.679 114.561 256.703 115.394 256.334 115.351Z" fill="#94CC79"/>
<path d="M244.904 124.808C244.904 124.808 244.142 126.79 245.88 126.473C246.653 125.577 247.181 124.497 247.415 123.337C247.415 123.337 251.17 115.109 252.281 114.355C252.281 114.355 257.175 107.666 257.703 107.567C257.703 107.567 257.873 106.916 256.164 108.292C254.454 109.668 250.71 114.966 250.71 114.966L247.141 120.783L246.3 123.103L244.904 124.808Z" fill="#E7C4C3"/>
<path opacity="0.2" d="M244.904 124.808C244.904 124.808 244.142 126.79 245.88 126.473C246.653 125.577 247.181 124.497 247.415 123.337C247.415 123.337 251.17 115.109 252.281 114.355C252.281 114.355 257.175 107.666 257.703 107.567C257.703 107.567 257.873 106.916 256.164 108.292C254.454 109.668 250.71 114.966 250.71 114.966L247.141 120.783L246.3 123.103L244.904 124.808Z" fill="white"/>
<path d="M185.908 165.083C186.563 167.234 187.368 169.335 188.319 171.372C191.05 170.801 193.737 170.035 196.359 169.08C196.442 169.053 194.856 166.979 194.689 166.808C194.043 166.094 193.273 165.503 192.416 165.063C191.58 164.699 190.548 164.976 189.64 165.024C188.403 165.087 187.159 165.107 185.908 165.083Z" fill="#FBBEBE"/>
<path d="M192.432 168.339C191.068 167.911 190.235 166.535 189.68 165.21C189.124 163.886 188.676 162.435 187.621 161.467C187.421 161.498 187.231 161.577 187.069 161.699C186.907 161.821 186.778 161.981 186.693 162.165C186.529 162.536 186.345 162.899 186.142 163.251C185.706 163.886 184.952 164.195 184.377 164.734C183.802 165.274 183.481 166.095 182.882 166.638C182.128 167.32 181.065 167.49 180.078 167.716C178.548 168.064 177.071 168.61 175.683 169.342C175.173 169.65 174.627 169.895 174.057 170.072C173.43 170.194 172.787 170.215 172.153 170.135L167.791 169.826C167.402 169.776 167.008 169.792 166.625 169.873C166.184 170.034 165.808 170.337 165.557 170.733C165.306 171.13 165.193 171.599 165.236 172.066C165.292 172.532 165.444 172.981 165.681 173.386C165.919 173.791 166.237 174.142 166.617 174.418C167.379 174.959 168.219 175.383 169.107 175.675C172.913 177.113 176.832 178.233 180.823 179.021V179.886C183.598 181.253 186.65 181.964 189.743 181.964C189.971 181.98 190.2 181.94 190.409 181.849C190.696 181.642 190.896 181.337 190.973 180.992C192.023 177.921 192.636 174.717 192.793 171.475C192.871 170.655 192.808 169.828 192.607 169.029C192.369 168.236 193.186 168.573 192.428 168.264" fill="#2F2E41"/>
<path d="M276.244 151.867C263.287 152.66 250.465 148.849 237.511 148.445C235.898 148.343 234.279 148.447 232.692 148.754C231.027 149.127 229.472 149.88 227.933 150.602C220.972 153.838 213.778 156.518 206.587 159.195L198.33 162.272C196.68 162.886 194.971 163.509 193.214 163.402C192.42 163.354 191.457 163.235 191.016 163.89C189.672 165.872 190.306 168.803 191.195 171.027C191.48 171.749 191.988 172.534 192.742 172.613C193.285 172.669 193.793 172.356 194.328 172.217C195.831 171.82 197.33 172.827 198.877 172.99C200.789 173.192 202.562 172.106 204.366 171.44C207.357 170.333 210.629 170.369 213.774 169.853C219.049 168.973 223.935 166.527 228.504 163.739C230.241 162.676 232.002 161.538 234.001 161.15C236.298 160.702 238.657 161.292 240.914 161.943C246.285 163.461 251.573 165.261 256.755 167.335C259.483 168.43 262.196 169.6 265.036 170.357C271.179 171.972 277.676 171.593 283.59 169.275C285.66 168.454 287.917 167.006 288.036 164.77C288.103 163.493 287.111 162.391 286.449 161.28C286.029 160.579 285.604 159.881 285.14 159.207C282.892 155.931 280.179 151.633 276.244 151.867Z" fill="#2F2E41"/>
<path opacity="0.1" d="M276.244 151.867C263.287 152.66 250.465 148.849 237.511 148.445C235.898 148.343 234.279 148.447 232.692 148.754C231.027 149.127 229.472 149.88 227.933 150.602C220.972 153.838 213.778 156.518 206.587 159.195L198.33 162.272C196.68 162.886 194.971 163.509 193.214 163.402C192.42 163.354 191.457 163.235 191.016 163.89C189.672 165.872 190.306 168.803 191.195 171.027C191.48 171.749 191.988 172.534 192.742 172.613C193.285 172.669 193.793 172.356 194.328 172.217C195.831 171.82 197.33 172.827 198.877 172.99C200.789 173.192 202.562 172.106 204.366 171.44C207.357 170.333 210.629 170.369 213.774 169.853C219.049 168.973 223.935 166.527 228.504 163.739C230.241 162.676 232.002 161.538 234.001 161.15C236.298 160.702 238.657 161.292 240.914 161.943C246.285 163.461 251.573 165.261 256.755 167.335C259.483 168.43 262.196 169.6 265.036 170.357C271.179 171.972 277.676 171.593 283.59 169.275C285.66 168.454 287.917 167.006 288.036 164.77C288.103 163.493 287.111 162.391 286.449 161.28C286.029 160.579 285.604 159.881 285.14 159.207C282.892 155.931 280.179 151.633 276.244 151.867Z" fill="black"/>
<path d="M210.783 165.714C212.809 166.404 214.855 167.04 216.923 167.621C218.077 165.726 220.239 164.405 220.73 162.24C220.751 162.192 220.761 162.141 220.761 162.089C220.76 162.036 220.748 161.985 220.726 161.938C220.704 161.891 220.672 161.849 220.632 161.815C220.593 161.781 220.546 161.755 220.496 161.741C219.019 160.923 217.379 160.442 215.693 160.333C214.361 160.25 213.754 161.637 213.147 162.617C212.905 163.009 211.327 165.9 210.783 165.714Z" fill="#FBBEBE"/>
<path d="M213.639 164.33C213.033 164.227 212.456 164.001 211.942 163.663C211.429 163.326 210.991 162.886 210.657 162.371C210.371 161.871 210.066 161.181 209.494 161.233C208.923 161.285 208.701 161.903 208.598 162.423C208.214 164.389 207.655 166.317 206.928 168.184C206.199 170.055 204.963 171.687 203.359 172.895C202.605 173.414 201.772 173.807 201.035 174.354C200.372 174.842 199.797 175.46 199.052 175.837C198.564 176.063 198.061 176.251 197.545 176.4C196.788 176.667 196.064 177.02 195.387 177.451C194.793 177.795 194.289 178.276 193.92 178.855C193.733 179.148 193.623 179.483 193.602 179.83C193.58 180.177 193.647 180.524 193.797 180.837C193.953 181.094 194.163 181.314 194.411 181.483C194.659 181.653 194.94 181.768 195.236 181.821C195.827 181.924 196.43 181.94 197.025 181.868C199.385 181.694 201.745 181.472 204.105 181.274C205.102 181.213 206.093 181.081 207.071 180.877C207.591 180.75 208.094 180.588 208.61 180.453C209.493 180.226 210.397 180.093 211.307 180.056C211.574 180.035 211.842 180.059 212.1 180.128C212.648 180.306 213.032 180.849 213.599 180.96C213.961 180.995 214.326 180.946 214.666 180.818C216.364 180.354 218.153 180.366 219.91 180.27C220.703 180.231 221.591 180.084 221.948 179.39C222.392 178.526 221.655 177.558 221.365 176.614C221.217 176.021 221.135 175.413 221.119 174.802C220.986 173.294 220.543 171.829 219.818 170.5C219.219 169.398 218.398 168.176 218.819 166.991C218.962 166.594 219.247 166.198 219.215 165.801C219.081 163.902 214.714 164.556 213.639 164.33Z" fill="#2F2E41"/>
<path d="M256.814 131.085C254.521 130.072 252.684 128.245 251.658 125.958C251.44 125.466 251.262 124.955 251.055 124.459C250.375 122.809 249.318 121.341 247.97 120.172C247.825 120.014 247.647 119.889 247.45 119.805C247.252 119.722 247.038 119.682 246.824 119.689C246.616 119.752 246.429 119.869 246.281 120.028C246.134 120.186 246.031 120.381 245.983 120.593C245.864 121.044 245.834 121.514 245.895 121.977C246.011 123.067 246.199 124.147 246.459 125.212L247.085 128.071C247.163 128.512 247.296 128.941 247.482 129.348C247.751 129.83 248.107 130.258 248.533 130.609C249.108 131.14 249.691 131.652 250.282 132.152C251.106 132.94 252.179 133.417 253.316 133.5C255.886 133.976 258.504 134.666 260.677 136.343C260.649 136.343 260.677 134.424 260.63 134.206C260.53 133.631 260.451 133.06 260.078 132.671C259.226 131.799 257.841 131.549 256.814 131.085Z" fill="#FBBEBE"/>
<path opacity="0.1" d="M256.814 131.085C254.521 130.072 252.684 128.245 251.658 125.958C251.44 125.466 251.262 124.955 251.055 124.459C250.375 122.809 249.318 121.341 247.97 120.172C247.825 120.014 247.647 119.889 247.45 119.805C247.252 119.722 247.038 119.682 246.824 119.689C246.616 119.752 246.429 119.869 246.281 120.028C246.134 120.186 246.031 120.381 245.983 120.593C245.864 121.044 245.834 121.514 245.895 121.977C246.011 123.067 246.199 124.147 246.459 125.212L247.085 128.071C247.163 128.512 247.296 128.941 247.482 129.348C247.751 129.83 248.107 130.258 248.533 130.609C249.108 131.14 249.691 131.652 250.282 132.152C251.106 132.94 252.179 133.417 253.316 133.5C255.886 133.976 258.504 134.666 260.677 136.343C260.649 136.343 260.677 134.424 260.63 134.206C260.53 133.631 260.451 133.06 260.078 132.671C259.226 131.799 257.841 131.549 256.814 131.085Z" fill="black"/>
<path d="M283.201 109.192C284.942 109.192 286.354 107.774 286.354 106.024C286.354 104.274 284.942 102.856 283.201 102.856C281.459 102.856 280.048 104.274 280.048 106.024C280.048 107.774 281.459 109.192 283.201 109.192Z" fill="#2F2E41"/>
<path d="M281.249 104.109C280.397 104.014 279.445 103.946 278.759 104.47C278.395 104.79 278.104 105.185 277.906 105.628C277.201 106.84 276.65 108.136 276.268 109.486C275.986 110.644 275.939 111.865 275.59 112.991C274.943 115.101 273.289 116.881 273.099 119.082C273.016 120.065 273.182 121.219 272.461 121.893C272.284 122.041 272.096 122.174 271.897 122.29C271.399 122.624 270.976 123.059 270.656 123.567C270.439 124.023 270.141 124.435 269.775 124.784C269.133 125.26 268.07 125.208 267.753 125.946C267.435 126.683 268.252 127.532 268.062 128.325C267.907 128.975 267.182 129.273 266.682 129.717C266.039 130.284 265.746 131.136 265.492 131.953C264.438 132.152 263.354 132.121 262.313 131.862C261.273 131.602 260.3 131.121 259.464 130.45C260.34 132.616 260.36 135.007 260.4 137.346C260.4 138.103 260.4 138.956 259.844 139.483C262.355 139.539 264.802 140.217 267.249 140.772C268.32 141.014 269.482 141.224 270.477 140.772C271.039 140.47 271.541 140.066 271.957 139.583C273.289 138.23 274.686 136.759 275.011 134.884C275.193 133.837 275.011 132.758 275.066 131.711C275.189 130.396 275.455 129.099 275.86 127.841C276.565 125.234 277.039 122.57 277.275 119.879C277.418 118.221 278.862 116.885 279.607 115.398C281.035 112.599 282.491 109.68 282.598 106.536C282.649 105.497 282.293 104.224 281.249 104.109Z" fill="#2F2E41"/>
<path opacity="0.1" d="M281.249 104.109C280.397 104.014 279.445 103.946 278.759 104.47C278.395 104.79 278.104 105.185 277.906 105.628C277.201 106.84 276.65 108.136 276.268 109.486C275.986 110.644 275.939 111.865 275.59 112.991C274.943 115.101 273.289 116.881 273.099 119.082C273.016 120.065 273.182 121.219 272.461 121.893C272.284 122.041 272.096 122.174 271.897 122.29C271.399 122.624 270.976 123.059 270.656 123.567C270.439 124.023 270.141 124.435 269.775 124.784C269.133 125.26 268.07 125.208 267.753 125.946C267.435 126.683 268.252 127.532 268.062 128.325C267.907 128.975 267.182 129.273 266.682 129.717C266.039 130.284 265.746 131.136 265.492 131.953C264.438 132.152 263.354 132.121 262.313 131.862C261.273 131.602 260.3 131.121 259.464 130.45C260.34 132.616 260.36 135.007 260.4 137.346C260.4 138.103 260.4 138.956 259.844 139.483C262.355 139.539 264.802 140.217 267.249 140.772C268.32 141.014 269.482 141.224 270.477 140.772C271.039 140.47 271.541 140.066 271.957 139.583C273.289 138.23 274.686 136.759 275.011 134.884C275.193 133.837 275.011 132.758 275.066 131.711C275.189 130.396 275.455 129.099 275.86 127.841C276.565 125.234 277.039 122.57 277.275 119.879C277.418 118.221 278.862 116.885 279.607 115.398C281.035 112.599 282.491 109.68 282.598 106.536C282.649 105.497 282.293 104.224 281.249 104.109Z" fill="black"/>
<path d="M278.287 154.595C275.59 153.31 273.615 150.919 271.433 148.869C267.269 144.96 262.172 142.192 257.794 138.524C254.891 136.097 252.297 133.266 249.108 131.232C246.302 129.448 243.122 128.335 239.815 127.98C239.437 127.913 239.048 127.932 238.677 128.036C238.259 128.221 237.895 128.508 237.618 128.872C236.205 130.467 234.949 132.193 233.866 134.027C228.314 143.445 220.429 151.375 213.897 160.127C213.691 160.335 213.568 160.612 213.554 160.905C213.539 161.197 213.633 161.485 213.818 161.713L215.146 164.314C215.888 165.773 217.082 167.486 218.684 167.181C219.418 167.046 220.001 166.507 220.54 165.991L226.489 160.293L232.744 154.314C236.409 150.812 240.133 147.228 242.524 142.751C244.388 145.987 247.704 148.104 249.977 151.078C250.841 152.204 251.563 153.457 252.317 154.647C253.554 156.558 254.962 158.354 256.366 160.147L263.541 169.303C264.516 170.548 265.524 171.824 266.86 172.669C268.562 173.744 270.628 174.029 272.627 174.208C275.322 174.448 278.028 174.546 280.734 174.501C282.796 174.465 284.922 174.331 286.774 173.415C288.626 172.499 290.145 170.639 290.05 168.545C289.937 167.469 289.583 166.433 289.015 165.512C286.469 160.793 283.118 156.887 278.287 154.595Z" fill="#2F2E41"/>
<path d="M285.14 110.656C286.479 110.656 287.564 109.564 287.564 108.217C287.564 106.87 286.479 105.778 285.14 105.778C283.802 105.778 282.717 106.87 282.717 108.217C282.717 109.564 283.802 110.656 285.14 110.656Z" fill="#E8E8F0"/>
<path d="M284.605 106.385C285.15 107.471 285.245 108.727 284.871 109.882C284.495 111.022 283.971 112.108 283.312 113.11C282.744 114.145 282.065 115.114 281.285 116.001C285.025 116.183 288.654 114.716 291.954 112.936C294.611 111.508 297.261 109.74 298.696 107.067C298.274 107.169 297.836 107.181 297.408 107.103C296.981 107.024 296.576 106.857 296.218 106.611C295.505 106.114 294.867 105.518 294.322 104.842L292.442 102.729C292.001 102.27 291.613 101.761 291.288 101.214C290.88 100.466 290.708 99.6118 290.792 98.7637C290.046 99.5452 289.211 100.237 288.305 100.826C286.965 101.698 285.485 102.332 284.141 103.205C283.665 103.51 282.602 103.998 282.876 104.628C283.149 105.259 284.236 105.719 284.605 106.385Z" fill="#FBBEBE"/>
<path opacity="0.1" d="M284.605 106.385C285.15 107.471 285.245 108.727 284.871 109.882C284.495 111.022 283.971 112.108 283.312 113.11C282.744 114.145 282.065 115.114 281.285 116.001C285.025 116.183 288.654 114.716 291.954 112.936C294.611 111.508 297.261 109.74 298.696 107.067C298.274 107.169 297.836 107.181 297.408 107.103C296.981 107.024 296.576 106.857 296.218 106.611C295.505 106.114 294.867 105.518 294.322 104.842L292.442 102.729C292.001 102.27 291.613 101.761 291.288 101.214C290.88 100.466 290.708 99.6118 290.792 98.7637C290.046 99.5452 289.211 100.237 288.305 100.826C286.965 101.698 285.485 102.332 284.141 103.205C283.665 103.51 282.602 103.998 282.876 104.628C283.149 105.259 284.236 105.719 284.605 106.385Z" fill="black"/>
<path d="M284.656 106.754C283.954 107.943 283.804 109.331 284.656 110.41C284.763 110.545 285.156 111.377 285.327 111.385C285.492 111.369 285.645 111.291 285.755 111.167C286.663 110.339 287.341 109.28 288.135 108.34C288.928 107.4 289.939 106.548 291.153 106.357C292.616 106.131 294.032 106.905 295.313 107.654C295.871 107.926 296.357 108.323 296.733 108.816C297.003 109.304 297.163 109.845 297.201 110.402C297.641 113.737 297.634 117.115 297.622 120.478C297.622 122.912 297.622 125.359 297.146 127.746C296.908 128.983 296.551 130.193 296.38 131.438C296.258 132.537 296.209 133.643 296.233 134.749V139.38C296.201 140.23 296.261 141.081 296.412 141.918C296.63 142.933 297.11 143.869 297.431 144.856C297.763 145.991 297.99 147.154 298.109 148.33L298.744 153.124C298.942 154.635 299.089 156.296 298.177 157.486C297.78 158.033 297.221 158.473 296.805 159.02C295.218 161.059 295.738 163.973 295.083 166.467C294.568 168.293 293.509 169.919 292.045 171.127C290.923 172.078 289.475 172.824 288.036 172.558C286.088 172.197 284.918 170.179 284.387 168.248C283.855 166.317 283.665 164.243 282.515 162.625C281.575 161.301 280.135 160.468 278.802 159.524C277.47 158.58 276.201 157.363 275.915 155.761C275.788 155.063 275.867 154.345 275.792 153.64C275.688 152.745 275.346 151.895 274.8 151.178C274.254 150.462 273.526 149.905 272.691 149.567C271.695 149.171 270.466 149.04 269.914 148.128C271.366 147.311 272.326 145.8 272.833 144.21C273.341 142.62 273.444 140.931 273.543 139.265L273.876 133.694C274.023 131.204 274.091 128.737 275.189 126.501C275.677 125.498 276.288 124.562 276.799 123.575C277.474 122.185 278.051 120.75 278.525 119.28C279.318 116.996 280.111 114.712 280.825 112.4C281.109 111.284 281.533 110.207 282.086 109.197C282.65 108.229 283.53 106.964 284.656 106.754Z" fill="#FA7268"/>
<path d="M272.282 142.949L273.757 143.001L274.071 140.776C274.111 140.33 274.215 139.892 274.38 139.475C274.624 139.037 274.908 138.621 275.229 138.234C276.68 136.184 276.573 133.476 276.934 130.974C277.414 127.651 278.802 124.542 280.175 121.485L283.046 115.105C283.615 114.021 283.888 112.806 283.839 111.584C283.867 110.596 284.157 107.012 284.184 106.032C284.184 105.667 283.391 105.87 283.213 105.544C282.856 104.835 282.364 106.758 281.694 107.178C281.023 107.598 280.651 108.368 280.369 109.105C279.75 110.711 279.373 112.4 278.783 114.022C278.192 115.644 277.406 117.238 276.109 118.384C275.522 118.899 274.848 119.304 274.293 119.855C272.512 121.616 272.338 124.395 272.274 126.905C272.242 128.377 271.941 142.949 272.282 142.949Z" fill="#2F2E41"/>
<path d="M293.509 104.093C292.077 104.656 291.292 106.21 290.891 107.701C290.491 109.192 290.324 110.786 289.555 112.123C287.754 115.251 283.169 116.163 281.904 119.546C281.507 120.652 281.507 121.865 281.392 123.043C281.162 125.466 280.365 127.802 280.131 130.228C280.006 132.111 280.05 134 280.262 135.875L281.848 154.984C282.082 157.759 282.074 160.706 281.368 163.386C282.991 163.699 284.68 163.279 286.183 162.593C287.686 161.907 289.063 160.963 290.51 160.166C293.001 158.79 295.75 157.819 297.931 155.987C298.326 155.679 298.665 155.305 298.93 154.881C299.367 154.127 299.406 153.211 299.613 152.363C299.801 151.684 300.041 151.021 300.33 150.38C301.13 148.454 301.826 146.487 302.417 144.488C302.822 143.161 303.142 141.81 303.373 140.443C303.547 139.356 303.642 138.254 303.737 137.156C303.854 135.435 304.195 133.736 304.753 132.104C306.146 128.213 306.937 124.132 307.097 120.002C307.142 119.406 307.1 118.806 306.974 118.221C306.729 117.513 306.404 116.834 306.006 116.199C305.34 114.946 304.939 113.566 304.312 112.289C302.893 109.414 300.382 107.23 297.756 105.402C296.479 104.509 294.972 103.522 293.509 104.093Z" fill="#2F2E41"/>
<path d="M260.007 135.268C258.868 134.671 257.837 133.887 256.957 132.949C256.56 132.481 256.227 131.953 255.819 131.493C254.789 130.393 253.451 129.63 251.98 129.304C250.52 128.984 249.027 128.839 247.534 128.872C246.534 128.809 245.531 128.93 244.575 129.229C244.097 129.385 243.666 129.661 243.323 130.029C242.981 130.397 242.737 130.847 242.616 131.335C242.397 132.524 243.175 133.678 244.107 134.443C244.975 135.151 245.996 135.647 247.089 135.891C247.98 136.045 248.88 136.15 249.782 136.204C255.089 136.759 259.825 139.646 264.457 142.275C268.542 144.588 272.705 146.748 276.946 148.754C277.113 147.483 277.184 146.201 277.156 144.92C277.133 143.964 277.085 142.505 276.181 141.942C275.13 141.288 273.404 141.149 272.215 140.752C269.481 139.856 266.811 138.776 264.223 137.521C262.792 136.82 261.387 136.069 260.007 135.268Z" fill="#FBBEBE"/>
<path d="M292.594 98.4158C293.929 93.339 290.917 88.1473 285.866 86.8198C280.816 85.4923 275.64 88.5317 274.305 93.6086C272.97 98.6854 275.982 103.877 281.032 105.205C286.082 106.532 291.259 103.493 292.594 98.4158Z" fill="#FBBEBE"/>
<path d="M296.214 114.871C295.369 115.854 294.944 117.123 294.377 118.289C293.211 120.692 291.379 122.754 290.463 125.268C289.495 127.917 289.527 131.065 287.631 133.147C287.302 133.508 286.905 133.857 286.81 134.336C286.797 134.628 286.764 134.918 286.711 135.205C286.441 135.958 285.204 135.998 284.974 136.767C284.906 136.993 284.942 137.239 284.859 137.461C284.668 137.957 284.014 138.032 283.574 138.333C282.653 138.956 282.84 140.399 282.185 141.299C281.898 141.636 281.526 141.89 281.108 142.035C280.689 142.18 280.24 142.211 279.806 142.124C278.946 141.948 278.119 141.639 277.355 141.208C277.083 141.057 276.783 140.964 276.474 140.935C276.108 140.946 275.753 141.066 275.455 141.28C273.71 142.39 272.889 144.591 272.901 146.668C272.913 148.746 273.627 150.745 274.356 152.688C274.457 153.015 274.622 153.32 274.84 153.584C275.419 154.195 276.427 154.099 277.196 153.758C277.966 153.417 278.664 152.882 279.489 152.731C280.952 152.466 282.384 153.473 283.851 153.39C284.938 153.326 285.902 152.696 286.802 152.085C288.246 151.11 289.713 150.102 290.768 148.722C291.419 147.874 291.895 146.91 292.462 146.002C293.187 144.896 293.982 143.836 294.841 142.83L300.291 136.16C300.838 135.529 301.329 134.851 301.758 134.134C302.254 133.166 302.638 132.144 302.901 131.089C303.42 129.308 303.944 127.52 304.031 125.66C304.061 124.134 303.928 122.61 303.634 121.112C303.446 119.619 303.045 118.161 302.444 116.782C301.322 114.308 298.439 112.273 296.214 114.871Z" fill="#2F2E41"/>
<path d="M312.697 110.628C313.133 109 313.177 107.292 312.824 105.645C312.471 103.997 311.731 102.457 310.666 101.151C312.114 94.9769 308.961 88.795 303.408 86.5071C303.606 80.7177 299.938 75.4042 294.286 73.9133C288.412 72.3708 282.388 75.4716 279.853 80.9834C276.284 79.1316 272.508 79.3299 271.263 81.5068C269.962 83.7829 271.917 87.3636 275.626 89.5009C276.794 90.1838 278.073 90.6575 279.405 90.9006C279.977 92.518 280.881 93.9978 282.06 95.2448C283.238 96.4918 284.664 97.4785 286.247 98.1412C286.149 100.482 286.706 102.804 287.855 104.845C289.004 106.887 290.7 108.568 292.751 109.7C292.975 111.327 293.577 112.879 294.508 114.232C294.399 114.516 294.306 114.806 294.231 115.101C293.065 119.522 295.587 124.019 299.859 125.141C304.13 126.263 308.54 123.591 309.702 119.169C310.015 117.991 310.069 116.758 309.861 115.557C311.232 114.198 312.211 112.496 312.697 110.628Z" fill="#3F3D56"/>
<path opacity="0.1" d="M273.71 82.6568C274.955 80.4798 278.727 80.2776 282.3 82.1333C284.827 76.6216 290.859 73.5167 296.733 75.0632C296.999 75.1306 297.261 75.2139 297.526 75.3011C296.522 74.6817 295.431 74.214 294.29 73.9133C288.416 72.3708 282.392 75.4716 279.857 80.9834C276.288 79.1316 272.512 79.3299 271.267 81.5068C269.966 83.7829 271.921 87.3636 275.629 89.5009C276.325 89.9013 277.059 90.2333 277.819 90.4922C274.273 88.3271 272.441 84.8773 273.71 82.6568Z" fill="black"/>
<path opacity="0.1" d="M296.682 116.251C296.757 115.956 296.85 115.666 296.959 115.382C296.028 114.028 295.426 112.474 295.202 110.846C293.151 109.715 291.455 108.035 290.306 105.994C289.157 103.952 288.6 101.631 288.698 99.291C287.115 98.6282 285.689 97.6416 284.511 96.3946C283.332 95.1475 282.428 93.6678 281.856 92.0504C281.08 91.9119 280.32 91.6899 279.592 91.3882C280.197 92.8969 281.097 94.2699 282.239 95.4272C283.381 96.5846 284.742 97.5031 286.243 98.1292C286.145 100.47 286.702 102.792 287.851 104.833C289 106.875 290.696 108.556 292.747 109.688C292.971 111.315 293.573 112.867 294.504 114.22C294.395 114.504 294.302 114.794 294.227 115.089C293.065 119.494 295.567 123.975 299.815 125.117C298.453 124.133 297.424 122.757 296.864 121.173C296.304 119.589 296.241 117.872 296.682 116.251Z" fill="black"/>
<path d="M287.527 99.2835C288.167 98.7974 288.159 97.7091 287.508 96.8529C286.858 95.9966 285.812 95.6966 285.171 96.1827C284.531 96.6689 284.54 97.7571 285.19 98.6134C285.841 99.4697 286.887 99.7697 287.527 99.2835Z" fill="#FBBEBE"/>
<path d="M171.257 15.5994C174.825 15.5994 177.718 12.7074 177.718 9.13989C177.718 5.57242 174.825 2.68042 171.257 2.68042C167.689 2.68042 164.796 5.57242 164.796 9.13989C164.796 12.7074 167.689 15.5994 171.257 15.5994Z" fill="#3F3D56"/>
<path d="M185.277 46.9491C195.285 46.9491 203.399 36.4392 203.399 23.4746C203.399 10.5099 195.285 0 185.277 0C175.269 0 167.156 10.5099 167.156 23.4746C167.156 36.4392 175.269 46.9491 185.277 46.9491Z" fill="#3F3D56"/>
<path opacity="0.1" d="M185.277 39.8593C176.199 39.8593 168.679 31.211 167.358 19.9297C167.221 21.1064 167.152 22.29 167.152 23.4747C167.152 36.4372 175.267 46.9492 185.277 46.9492C195.288 46.9492 203.398 36.4372 203.398 23.4747C203.399 22.29 203.33 21.1064 203.192 19.9297C201.875 31.2268 194.356 39.8593 185.277 39.8593Z" fill="black"/>
<path d="M223.891 92.2249C223.495 93.811 221.825 95.1037 219.969 95.9959C216.058 97.8794 211.244 98.4385 206.567 98.6288C205.378 98.701 204.184 98.6785 202.998 98.5614C200.551 98.2719 198.282 97.2291 196.866 95.7421C196.664 95.5797 196.524 95.353 196.47 95.0997C196.48 94.9478 196.52 94.7993 196.588 94.6631C196.656 94.5269 196.751 94.4057 196.866 94.3066C199.361 91.5865 203.518 89.9131 207.69 88.7235C210.863 87.8075 216.392 85.4363 219.854 85.7575C223.217 86.0469 224.383 90.2026 223.891 92.2249Z" fill="#3F3D56"/>
<path opacity="0.1" d="M223.891 92.2249C223.495 93.811 221.825 95.1037 219.969 95.9959C216.058 97.8794 211.244 98.4385 206.567 98.6288C205.378 98.701 204.184 98.6785 202.998 98.5614C200.551 98.2719 198.282 97.2291 196.866 95.7421C196.664 95.5797 196.524 95.353 196.47 95.0997C196.48 94.9478 196.52 94.7993 196.588 94.6631C196.656 94.5269 196.751 94.4057 196.866 94.3066C199.361 91.5865 203.518 89.9131 207.69 88.7235C210.863 87.8075 216.392 85.4363 219.854 85.7575C223.217 86.0469 224.383 90.2026 223.891 92.2249Z" fill="black"/>
<path d="M174.212 80.2734C173.022 82.6065 172.807 85.3159 173.613 87.8075C174.435 90.2851 175.974 92.463 178.035 94.0648C183.1 98.1292 190.049 98.6883 196.525 98.6367C202.204 98.5856 207.875 98.1963 213.508 97.4709C215.384 97.2291 217.28 96.9436 219.017 96.1941C221.131 95.2781 222.983 93.6008 223.741 91.4358C224.498 89.2707 223.963 86.5902 222.154 85.1389C220.568 83.862 218.414 83.6876 216.395 83.5527L204.834 82.8588C205.976 81.7009 207.495 81.0467 208.888 80.21C210.732 79.0918 211.957 77.2202 213.302 75.5349C215.285 73.013 217.665 70.8083 220.044 68.6155C220.441 70.7726 221.785 72.5451 223.392 74.036C224.998 75.527 226.85 76.7245 228.524 78.1401C232.569 81.5741 235.48 86.2373 239.736 89.4095C242.664 88.6398 245.401 87.2736 247.775 85.3966L246.122 82.4028C245.986 82.0892 245.771 81.816 245.499 81.6097C245.027 81.3242 244.424 81.471 243.881 81.3917C242.429 81.1736 241.795 79.4962 241.223 78.1441C239.661 74.4246 236.662 71.5418 234.084 68.4251C232.204 66.1274 230.538 63.6626 229.107 61.0616C228.246 59.5111 227.461 57.8893 226.291 56.553C225.121 55.2167 223.491 54.1738 221.714 54.1738C220.128 54.1738 218.7 54.9669 217.351 55.7599C213.244 58.2 209.291 60.8924 205.516 63.8214C203.533 65.352 201.578 66.9738 199.262 67.9136C198.286 68.3101 197.279 68.5798 196.323 69.0596C194.685 69.9042 193.44 71.3317 192.099 72.5966C187.324 77.1131 180.784 80.0395 174.212 80.2734Z" fill="#605D82"/>
<path d="M198.389 48.1149C198.338 49.497 198.044 50.8593 197.521 52.1396C197.256 52.7758 196.863 53.3505 196.366 53.8281C195.869 54.3056 195.28 54.6758 194.633 54.9154C193.714 55.1617 192.751 55.1929 191.817 55.0066C191.002 54.9186 190.217 54.6475 189.521 54.2135C188.438 53.468 187.899 52.1396 187.701 50.839C187.502 49.5384 187.594 48.21 187.467 46.9015C187.343 45.8439 187.142 44.7968 186.864 43.7689C186.78 43.4279 186.693 43.0869 186.606 42.7458C186.519 42.4048 186.443 42.0638 186.368 41.7228C186.293 41.3818 186.233 41.0844 186.178 40.7592C186.122 40.4341 186.09 40.212 186.063 39.9384C186.037 39.1208 185.904 38.3102 185.666 37.5275C185.44 37.0209 185.157 36.5419 184.821 36.1C184.678 35.8938 184.54 35.7035 184.425 35.4775C184.055 34.925 183.883 34.2642 183.937 33.6019C183.952 33.4992 183.977 33.3983 184.012 33.3005C184.024 33.2626 184.039 33.2255 184.056 33.1895C184.197 33.1507 184.327 33.078 184.434 32.9779C184.541 32.8777 184.622 32.753 184.671 32.6145C184.725 32.3157 184.699 32.0078 184.595 31.7223C184.479 31.3236 184.318 30.9392 184.115 30.5763C183.984 30.3384 183.536 29.9062 183.532 29.6326C183.532 29.0814 184.603 28.6373 185.039 28.4192C186.372 27.7509 187.859 27.4498 189.347 27.5469C190.298 27.6103 191.33 27.9037 191.857 28.7047C192.333 29.4224 192.254 30.3543 192.472 31.191C192.49 31.3131 192.541 31.4282 192.619 31.5241C192.722 31.6182 192.852 31.6778 192.991 31.6946C193.224 31.7414 193.462 31.7508 193.697 31.7223C193.76 31.7189 193.823 31.7096 193.884 31.6946C194.251 31.6268 194.597 31.4777 194.899 31.2584C195.097 31.2029 195.296 31.1632 195.49 31.1275H195.514C196.307 33.6177 196.406 36.2824 197.053 38.8281C197.374 40.0891 197.846 41.3342 197.897 42.6348C197.897 42.6903 197.897 42.7498 197.897 42.8053C197.897 43.2257 197.874 43.646 197.897 44.0623C197.905 44.2487 197.926 44.4343 197.961 44.6175C198.032 44.9127 198.12 45.204 198.223 45.4898C198.25 45.581 198.278 45.6722 198.302 45.7674C198.322 45.8339 198.338 45.9014 198.35 45.9696C198.466 46.6791 198.479 47.4016 198.389 48.1149Z" fill="#FBBEBE"/>
<path d="M187.332 31.8254C192.466 31.8254 196.628 27.664 196.628 22.5307C196.628 17.3974 192.466 13.2361 187.332 13.2361C182.197 13.2361 178.035 17.3974 178.035 22.5307C178.035 27.664 182.197 31.8254 187.332 31.8254Z" fill="#FBBEBE"/>
<path d="M246.36 73.1756C246.089 70.6422 245.187 68.217 243.738 66.1213L244.464 70.4237C244.163 70.5099 243.843 70.5067 243.544 70.4145C243.244 70.3223 242.978 70.145 242.778 69.9042C242.386 69.4153 242.086 68.859 241.894 68.2626C240.837 65.6415 239.456 63.1635 237.781 60.8871C231.863 60.3915 226.009 57.9409 220.806 55.078C215.602 52.215 210.728 48.793 205.588 45.815C204.697 45.2777 203.769 44.8034 202.812 44.3955C201.205 43.7531 199.401 43.42 197.878 42.6626L197.572 42.5C197.227 42.3149 196.9 42.0971 196.597 41.8497C196.433 41.7151 196.278 41.5707 196.133 41.4175C195.372 40.5341 194.768 39.5268 194.348 38.4396C193.531 36.6314 193.237 34.4465 192.424 32.6383C192.799 32.2892 193.22 31.9918 193.674 31.7541L193.872 31.655C194.195 31.5041 194.531 31.3821 194.875 31.2901C195.074 31.2346 195.272 31.195 195.466 31.1593H195.49C196.412 31.0107 197.356 31.0855 198.243 31.3774C199.536 31.8175 200.622 32.6899 201.717 33.5186C203.442 34.8232 205.235 36.0525 206.801 37.5474C207.698 38.4079 208.519 39.3516 209.483 40.1328C210.286 40.7529 211.133 41.3148 212.017 41.8141L227.699 51.1523C229.468 52.2031 231.241 53.2579 232.97 54.3761C235.599 56.0693 238.126 57.9052 240.664 59.7412L245.142 62.9848C245.632 63.3026 246.062 63.7055 246.411 64.1744C246.718 64.7002 246.909 65.2856 246.97 65.8914C247.342 68.3337 247.133 70.8293 246.36 73.1756Z" fill="#FBBEBE"/>
<path d="M200.698 55.1058C200.067 57.9172 197.227 59.6183 195.74 62.0887C193.892 65.1539 194.645 68.7187 195.343 72.2319L191.54 75.5073C190.842 76.106 190.14 76.6969 189.39 77.2401C188.291 77.979 187.142 78.6414 185.952 79.2228L182.588 80.9516C181.545 81.5377 180.439 82.0059 179.292 82.3474C177.079 82.9144 174.731 82.5179 172.55 81.8636C172.292 81.7964 172.044 81.695 171.812 81.5623C171.676 81.4805 171.558 81.3727 171.463 81.2451C171.246 80.8586 171.168 80.4094 171.241 79.9722C171.463 76.2924 172.364 72.6879 173.26 69.1112C173.731 66.9632 174.369 64.8553 175.168 62.8064C175.955 61.0526 176.86 59.3542 177.877 57.7229C179.066 55.7125 180.256 53.6862 181.843 51.9613C182.521 51.2158 183.278 50.51 183.683 49.5821C184.242 48.3053 184.024 46.8421 184.139 45.4543C184.225 44.4095 184.502 43.3893 184.956 42.4446C185.199 41.9361 185.491 41.4527 185.829 41.0012C185.983 41.3581 186.134 41.715 186.289 42.0679L186.586 42.7658C186.717 43.0632 186.844 43.3645 186.983 43.6619C187.353 44.5132 187.72 45.3657 188.085 46.2196C188.479 47.2951 189.043 48.3005 189.755 49.1975C190.513 50.054 191.627 50.6766 192.761 50.5536C193.294 50.4648 193.8 50.2586 194.243 49.95C194.687 49.6414 195.056 49.238 195.323 48.7692C195.855 47.8302 196.239 46.8152 196.462 45.7596C196.774 44.4751 196.817 43.1399 196.589 41.8379C196.192 39.3279 195.141 36.7663 194.368 34.4347C194.052 33.6578 193.87 32.8334 193.828 31.996C193.828 31.9015 193.837 31.8071 193.856 31.7145V31.6431C194.179 31.4923 194.515 31.3702 194.859 31.2783C195.058 31.2228 195.256 31.1831 195.45 31.1475C196.133 34.8484 196.816 38.5414 197.501 42.2265C197.501 42.3137 197.537 42.401 197.552 42.4882C197.648 43.0196 197.747 43.5469 197.858 44.0743C197.969 44.6017 198.064 45.03 198.183 45.5018C198.223 45.6605 198.266 45.823 198.31 45.9816C198.433 46.4178 198.568 46.8461 198.707 47.2743C199.674 49.8637 201.289 52.4451 200.698 55.1058Z" fill="#FA7268"/>
<path d="M238.431 94.6278C238.397 95.1739 238.502 95.7197 238.737 96.214C239.316 97.2767 240.72 97.5185 241.91 97.6177C248.967 98.1993 256.068 97.9838 263.077 96.9753C263.457 96.9475 263.827 96.8321 264.155 96.6382C265.151 95.9403 264.552 94.2392 263.45 93.692C262.347 93.1448 261.07 93.2955 259.88 93.0457C258.693 92.7456 257.563 92.2555 256.533 91.5944C254.113 90.2039 251.734 88.7499 249.394 87.2325C247.994 86.3324 246.34 85.3728 244.765 85.9081C240.486 87.3515 238.4 90.0241 238.431 94.6278Z" fill="#2F2E41"/>
<path d="M186.404 41.5364L186.368 41.7307L186.308 42.0558C186.114 43.0551 185.872 44.0385 185.599 45.0417C184.841 47.7738 183.83 50.4662 182.822 53.1151L174.727 74.4484C174.045 76.2407 173.367 78.0171 172.594 79.7857C172.336 80.3686 172.07 80.9753 171.8 81.5542C170.853 83.6836 169.94 85.8843 169.639 88.1564C169.441 89.6593 169.242 91.1938 169.54 92.6808C169.837 94.1678 170.73 95.6231 172.161 96.1703C172.851 96.4399 173.839 96.8008 173.649 97.5185C173.549 97.915 173.101 98.1053 172.697 98.1688C172.166 98.2543 171.623 98.2215 171.107 98.0728C170.591 97.924 170.114 97.663 169.71 97.3083C168.957 96.6421 168.374 95.5993 167.37 95.4882C166.676 95.4129 166.038 95.8293 165.387 96.1187C162.789 97.3083 159.767 96.4756 157.039 95.631C157.253 94.5286 158.363 93.799 159.462 93.5809C160.56 93.3628 161.703 93.5135 162.829 93.4858C163.189 93.5046 163.547 93.4118 163.852 93.2201C164.128 92.9733 164.326 92.6505 164.419 92.2922C165.142 90.1481 165.68 87.9458 166.026 85.7098C166.391 83.3703 166.541 80.999 167.057 78.6912C167.454 76.891 168.08 75.1463 168.612 73.3777C169.643 69.738 170.489 66.0481 171.146 62.3225C171.479 60.7761 171.717 59.2109 171.86 57.6355C171.951 56.327 171.907 55.0105 172.034 53.7099C172.245 52.0152 172.598 50.3412 173.089 48.7056C173.573 46.9173 174.053 45.1369 174.537 43.3525C175.251 40.7116 176.016 37.9716 177.825 35.9215C178.453 35.1989 179.222 34.6131 180.086 34.2004C180.95 33.7877 181.889 33.557 182.846 33.5225C183.205 33.5209 183.563 33.5595 183.913 33.6375L184.087 33.6811C184.47 33.7798 184.838 33.9319 185.178 34.1332C185.737 33.7763 186.019 33.9032 186.392 34.4464C186.715 35.0266 186.868 35.6865 186.832 36.3498C186.861 38.0885 186.717 39.8259 186.404 41.5364Z" fill="#FBBEBE"/>
<path d="M187.014 43.6422L186.991 43.666L186.864 43.7929L185.599 45.0578L184.976 42.4486L182.846 33.5108C183.205 33.5092 183.563 33.5478 183.913 33.6258C183.928 33.5232 183.953 33.4222 183.988 33.3245L184.087 33.6694L184.809 36.124L186.178 40.7832L186.404 41.5525L187.014 43.6422Z" fill="#FA7268"/>
<path d="M194.118 8.82275H183.465C180.836 8.82275 178.705 10.9531 178.705 13.5811V16.6701C178.705 19.298 180.836 21.4284 183.465 21.4284H194.118C196.746 21.4284 198.877 19.298 198.877 16.6701V13.5811C198.877 10.9531 196.746 8.82275 194.118 8.82275Z" fill="#3F3D56"/>
<path d="M200.055 15.5994C203.623 15.5994 206.516 12.7074 206.516 9.13989C206.516 5.57242 203.623 2.68042 200.055 2.68042C196.487 2.68042 193.594 5.57242 193.594 9.13989C193.594 12.7074 196.487 15.5994 200.055 15.5994Z" fill="#3F3D56"/>
<path opacity="0.1" d="M199.9 2.67669H199.662C201.326 2.74813 202.899 3.45928 204.051 4.66174C205.203 5.86419 205.846 7.46503 205.846 9.13021C205.846 10.7954 205.203 12.3962 204.051 13.5987C202.899 14.8011 201.326 15.5123 199.662 15.5837H199.9C201.614 15.5837 203.257 14.9032 204.469 13.6918C205.681 12.4804 206.361 10.8374 206.361 9.12426C206.361 7.41111 205.681 5.76811 204.469 4.55673C203.257 3.34534 201.614 2.66479 199.9 2.66479V2.67669Z" fill="black"/>
<path opacity="0.1" d="M171.257 2.67669H171.495C169.831 2.74813 168.259 3.45928 167.107 4.66174C165.955 5.86419 165.311 7.46503 165.311 9.13021C165.311 10.7954 165.955 12.3962 167.107 13.5987C168.259 14.8011 169.831 15.5123 171.495 15.5837H171.257C170.409 15.5837 169.568 15.4167 168.785 15.092C168.001 14.7674 167.289 14.2916 166.689 13.6918C166.089 13.092 165.613 12.3799 165.288 11.5962C164.963 10.8125 164.796 9.97253 164.796 9.12426C164.796 8.27599 164.963 7.43604 165.288 6.65234C165.613 5.86864 166.089 5.15655 166.689 4.55673C167.289 3.95691 168.001 3.48111 168.785 3.15649C169.568 2.83188 170.409 2.66479 171.257 2.66479V2.67669Z" fill="black"/>
<path opacity="0.1" d="M199.075 20.1636H182.703C182.202 20.1636 181.722 19.9649 181.367 19.611C181.012 19.2572 180.812 18.7771 180.811 18.2761V19.5331C180.812 20.0344 181.012 20.5149 181.367 20.8694C181.721 21.2239 182.202 21.4235 182.703 21.4246H199.091C199.593 21.4235 200.073 21.2239 200.428 20.8694C200.782 20.5149 200.982 20.0344 200.983 19.5331V18.2761C200.982 18.5254 200.932 18.772 200.835 19.0018C200.739 19.2316 200.598 19.4402 200.421 19.6155C200.244 19.7908 200.034 19.9295 199.803 20.0235C199.572 20.1176 199.325 20.1652 199.075 20.1636Z" fill="black"/>
<path d="M254.617 86.285C254.617 86.285 255.64 86.4635 255.807 85.6347C255.89 85.2382 255.609 82.6925 255.287 80.1467C255.133 78.8937 254.966 77.6446 254.831 76.6454C254.669 75.4201 254.55 74.5755 254.55 74.5755L254.363 73.9569L253.261 70.2533L252.221 66.7638L251.456 65.3918L245.947 68.0724L242.52 73.9926L243.583 74.6627L243.77 74.7817L245.725 76.8278L251.206 82.5775L253.673 85.1668L253.963 85.4682L254.617 86.285Z" fill="#FFE09C"/>
<path d="M250.286 63.0364C250.286 63.0364 244.25 65.8676 242.798 68.9447C242.798 68.9447 241.442 71.534 241.271 72.91C241.271 72.91 240.874 74.167 243.377 74.4763C243.377 74.4763 244.515 69.8567 247.93 67.8502L251.349 65.8478L250.286 63.0364Z" fill="#E7C4C3"/>
<path d="M251.859 70.1438C252.153 69.0456 251.638 67.9531 250.707 67.7037C249.776 67.4543 248.783 68.1424 248.489 69.2407C248.194 70.3389 248.71 71.4314 249.641 71.6808C250.571 71.9302 251.564 71.2421 251.859 70.1438Z" fill="#FF7F8E"/>
<path d="M251.204 77.3228C251.496 76.2288 250.98 75.1417 250.053 74.8947C249.126 74.6478 248.138 75.3344 247.847 76.4285C247.555 77.5225 248.07 78.6096 248.997 78.8566C249.924 79.1036 250.912 78.4169 251.204 77.3228Z" fill="#FF7F8E"/>
<path d="M245.725 76.8277C246.041 76.6994 246.322 76.4976 246.545 76.239C246.768 75.9804 246.926 75.6725 247.006 75.3408C247.299 74.2463 246.784 73.1559 245.856 72.91C244.928 72.6642 243.94 73.3502 243.651 74.4446C243.628 74.5185 243.611 74.5941 243.599 74.6706L243.785 74.7896L245.725 76.8277Z" fill="#FF7F8E"/>
<path d="M253.098 74.1828C253.315 74.2378 253.542 74.2461 253.763 74.2071C253.984 74.1681 254.194 74.0828 254.379 73.9568L253.276 70.2532C252.948 70.375 252.655 70.5759 252.422 70.838C252.19 71.1001 252.025 71.4154 251.944 71.756C251.654 72.8623 252.17 73.9369 253.098 74.1828Z" fill="#FF7F8E"/>
<path d="M253.736 80.5906C254.014 80.656 254.303 80.6496 254.577 80.5719C254.852 80.4941 255.101 80.3477 255.303 80.1465C255.148 78.8935 254.982 77.6444 254.847 76.6451H254.795C253.867 76.3953 252.88 77.0853 252.586 78.1797C252.293 79.2741 252.812 80.3447 253.736 80.5906Z" fill="#FF7F8E"/>
<path d="M253.673 85.1548C253.787 84.9628 253.874 84.756 253.931 84.5402C254.224 83.4458 253.709 82.3593 252.781 82.1134C252.5 82.0454 252.206 82.0513 251.928 82.1305C251.65 82.2097 251.397 82.3596 251.194 82.5655L253.673 85.1548Z" fill="#FF7F8E"/>
<path d="M250.948 68.572L251.583 68.7425C251.334 69.2014 251.186 69.7085 251.151 70.2295C251.149 70.2639 251.149 70.2983 251.151 70.3326C251.234 70.9869 250.516 70.1621 250.516 70.1621C250.516 70.1621 250.639 68.8179 250.948 68.572Z" fill="#94CC79"/>
<path d="M248.057 72.6641L248.696 72.8346C248.444 73.2911 248.296 73.7975 248.263 74.3176C248.261 74.3519 248.261 74.3864 248.263 74.4207C248.347 75.075 247.629 74.2502 247.629 74.2502C247.629 74.2502 247.748 72.9059 248.057 72.6641Z" fill="#94CC79"/>
<path d="M250.032 74.0164L250.667 74.1829C250.417 74.6417 250.27 75.1489 250.234 75.6699C250.232 75.7042 250.232 75.7386 250.234 75.773C250.322 76.4272 249.6 75.6025 249.6 75.6025C249.6 75.6025 249.731 74.2582 250.032 74.0164Z" fill="#94CC79"/>
<path d="M252.57 77.4304L253.209 77.597C252.958 78.055 252.81 78.5626 252.777 79.0839C252.775 79.1183 252.775 79.1527 252.777 79.187C252.86 79.8413 252.142 79.0165 252.142 79.0165C252.142 79.0165 252.265 77.6723 252.57 77.4304Z" fill="#94CC79"/>
<path d="M254.153 83.0493L254.788 83.2198C254.539 83.6774 254.391 84.1832 254.355 84.7028C254.353 84.7372 254.353 84.7716 254.355 84.8059C254.442 85.4602 253.721 84.6394 253.721 84.6394C253.721 84.6394 253.844 83.2912 254.153 83.0493Z" fill="#94CC79"/>
<path d="M250.71 79.1196L251.345 79.2901C251.094 79.7536 250.949 80.2669 250.921 80.793C250.918 80.8273 250.918 80.8618 250.921 80.8961C251.004 81.5504 250.286 80.7295 250.286 80.7295C250.286 80.7295 250.405 79.3615 250.71 79.1196Z" fill="#94CC79"/>
<path d="M252.249 63.5597C252.249 63.5597 251.341 61.5017 250.266 63.0363C250.357 64.2823 250.766 65.4839 251.456 66.5258C251.456 66.5258 254.744 75.4675 254.47 76.8356C254.47 76.8356 255.767 85.472 255.446 85.9557C255.446 85.9557 255.803 86.5664 256.057 84.2705C256.311 81.9746 255.196 75.2296 255.196 75.2296L253.566 68.219L252.475 65.8398L252.249 63.5597Z" fill="#E7C4C3"/>
<path opacity="0.2" d="M252.249 63.5597C252.249 63.5597 251.341 61.5017 250.266 63.0363C250.357 64.2823 250.766 65.4839 251.456 66.5258C251.456 66.5258 254.744 75.4675 254.47 76.8356C254.47 76.8356 255.767 85.472 255.446 85.9557C255.446 85.9557 255.803 86.5664 256.057 84.2705C256.311 81.9746 255.196 75.2296 255.196 75.2296L253.566 68.219L252.475 65.8398L252.249 63.5597Z" fill="white"/>
<path d="M241.342 66.97C241.342 66.97 242.972 71.6649 244.464 70.4158L243.274 64.2815L241.342 66.97Z" fill="#FBBEBE"/>
<path d="M129.855 86.2532C129.855 86.2532 144.232 110.469 147.591 113.705C147.591 113.705 161.957 128.614 154.655 127.583C154.119 127.508 143.605 118.622 142.991 117.163C142.376 115.703 122.498 89.8854 122.498 89.8854L125.333 87.2762L129.855 86.2532Z" fill="#A0616A"/>
<path opacity="0.1" d="M129.855 86.2532C129.855 86.2532 144.232 110.469 147.591 113.705C147.591 113.705 161.957 128.614 154.655 127.583C154.119 127.508 143.605 118.622 142.991 117.163C142.376 115.703 122.498 89.8854 122.498 89.8854L125.333 87.2762L129.855 86.2532Z" fill="black"/>
<path d="M143.002 165.341C143.002 165.341 138.402 171.091 140.321 173.391C142.241 175.69 151.803 180.088 154.889 179.906C158.149 179.715 169.076 180.302 169.46 175.306C169.46 175.306 170.226 173.006 160.259 172.621C150.292 172.237 153.354 161.887 153.354 161.887L143.002 165.341Z" fill="#2F2E41"/>
<path d="M88.1748 116.655C88.1748 116.655 83.5741 132.37 97.3762 135.054L112.328 134.289C112.328 134.289 133.416 130.07 139.171 133.139C139.171 133.139 141.471 133.535 140.702 136.589C139.933 139.642 141.852 160.357 141.852 160.357V167.256C141.852 167.256 154.889 167.256 156.424 165.722C156.424 165.722 155.274 159.587 156.424 154.619C157.574 149.65 154.508 133.916 154.508 133.916L154.203 124.475C154.179 123.305 153.845 122.162 153.234 121.164C152.622 120.166 151.756 119.349 150.724 118.796C149.999 118.413 149.193 118.207 148.373 118.198C148.373 118.198 122.299 113.983 113.098 114.748C103.896 115.513 88.1748 116.655 88.1748 116.655Z" fill="#605D82"/>
<path d="M113.863 66.4346C113.863 66.4346 120.764 74.4841 121.53 77.1686C122.295 79.8531 130.747 86.7409 130.747 86.7409C130.747 86.7409 124.612 91.3406 125.762 93.6405C126.912 95.9404 117.71 85.9756 117.71 85.9756L106.95 70.269L113.863 66.4346Z" fill="#FA7268"/>
<path opacity="0.1" d="M113.863 66.4346C113.863 66.4346 120.764 74.4841 121.53 77.1686C122.295 79.8531 130.747 86.7409 130.747 86.7409C130.747 86.7409 124.612 91.3406 125.762 93.6405C126.912 95.9404 117.71 85.9756 117.71 85.9756L106.95 70.269L113.863 66.4346Z" fill="black"/>
<path d="M118.452 57.2349C118.452 57.2349 115.002 68.3378 115.002 72.5688C115.002 76.7997 100.43 71.4188 100.815 69.1189C101.2 66.8191 109.251 58.3849 109.635 54.9351C110.02 51.4853 118.452 57.2349 118.452 57.2349Z" fill="#A0616A"/>
<path opacity="0.1" d="M106.95 64.9C106.95 64.9 93.529 61.4502 91.6134 81.0031C89.6978 100.556 93.1443 102.852 87.3935 114.736C81.6426 126.62 126.503 116.27 126.503 116.27C126.503 116.27 124.203 113.586 116.917 114.736L113.467 104.386C113.467 104.386 112.317 99.7867 118.837 99.7867C125.357 99.7867 122.287 86.3681 122.287 86.3681C122.287 86.3681 118.837 74.8687 116.917 73.7188C114.998 72.5689 111.563 65.6693 106.95 64.9Z" fill="black"/>
<path d="M106.95 64.1388C106.95 64.1388 93.529 60.689 91.6134 80.2379C89.6978 99.7868 93.1443 102.091 87.3935 113.975C81.6426 125.859 126.503 115.509 126.503 115.509C126.503 115.509 124.203 112.825 116.917 113.975L113.467 103.625C113.467 103.625 112.328 99.0334 118.849 99.0334C125.369 99.0334 122.299 85.6149 122.299 85.6149C122.299 85.6149 118.849 74.1155 116.929 72.9656C115.01 71.8156 111.563 64.9002 106.95 64.1388Z" fill="#FA7268"/>
<path d="M115.014 64.1348C122.001 64.1348 127.665 58.4715 127.665 51.4855C127.665 44.4995 122.001 38.8362 115.014 38.8362C108.026 38.8362 102.362 44.4995 102.362 51.4855C102.362 58.4715 108.026 64.1348 115.014 64.1348Z" fill="#A0616A"/>
<path d="M112.57 116.255L144.367 135.256L173.95 107.698L138.683 95.417L113.304 112.69L112.57 116.255Z" fill="#DADAE5"/>
<path d="M150.094 63.0642L140.198 92.4867L173.006 101.92L187.01 62.1323L150.094 63.0642Z" fill="#DADAE5"/>
<path opacity="0.03" d="M147.452 60.8912L150.137 63.3457L187.054 62.4138L187.903 60.0029L147.452 60.8912Z" fill="black"/>
<path opacity="0.03" d="M137.708 90.7934L147.452 60.8911L150.137 63.3456L140.492 92.0306L137.708 90.7934Z" fill="black"/>
<path d="M147.409 60.6094L150.094 63.0639L187.01 62.1321L187.859 59.7212L147.409 60.6094Z" fill="#EFF0F4"/>
<path d="M137.664 90.5159L147.409 60.6096L150.094 63.0641L140.448 91.7491L137.664 90.5159Z" fill="#EFF0F4"/>
<path opacity="0.03" d="M147.409 60.6094L151.514 64.4478L188.434 63.516L187.859 59.7212L147.409 60.6094Z" fill="black"/>
<path opacity="0.03" d="M137.664 90.5159L147.409 60.6096L151.514 64.448L141.868 93.133L137.664 90.5159Z" fill="black"/>
<path opacity="0.03" d="M137.727 90.936L138.624 96.6262L174.109 108.942L173.074 102.34L137.727 90.936Z" fill="black"/>
<path opacity="0.03" d="M111.496 109.636L137.727 90.936L138.874 96.6223L113.106 115.783L111.496 109.636Z" fill="black"/>
<path d="M137.664 90.5159L138.433 95.4209L173.918 107.737L173.006 101.92L137.664 90.5159Z" fill="#EFF0F4"/>
<path d="M111.428 109.212L137.664 90.5159L138.683 95.417L112.915 114.577L111.428 109.212Z" fill="#EFF0F4"/>
<path opacity="0.03" d="M137.664 90.5159L138.433 95.4209L173.918 107.737L173.006 101.92L137.664 90.5159Z" fill="black"/>
<path opacity="0.03" d="M111.428 109.212L137.664 90.5159L138.683 95.417L112.915 114.577L111.428 109.212Z" fill="black"/>
<path d="M111.428 109.212L112.614 116.283L144.323 135.225L143.542 127.948L111.428 109.212Z" fill="#CCCAD6"/>
<path d="M125.877 108.094C125.877 108.094 125.325 109.145 126.166 109.629C126.563 109.859 129.43 110.422 132.31 110.961C133.722 111.223 135.138 111.477 136.276 111.675C137.664 111.921 138.624 112.071 138.624 112.071H139.354L143.764 112.155L147.912 112.234L149.669 111.873L148.658 104.981L143.407 99.2119L142.308 100.14L142.122 100.298L139.235 101.702L131.088 105.667L127.423 107.452L126.995 107.662L125.877 108.094Z" fill="#FFE09C"/>
<path d="M152.636 111.421C152.636 111.421 151.649 103.887 148.801 101.246C148.801 101.246 146.461 98.8669 145.021 98.2166C145.021 98.2166 143.796 97.3482 142.59 99.9653C142.59 99.9653 147.218 102.796 148.218 107.202L149.213 111.607L152.636 111.421Z" fill="#E7C4C3"/>
<path d="M147.07 108.732C147.659 107.809 147.254 106.497 146.165 105.802C145.076 105.106 143.715 105.29 143.126 106.213C142.536 107.136 142.941 108.448 144.03 109.143C145.119 109.839 146.48 109.655 147.07 108.732Z" fill="#FF7F8E"/>
<path d="M139.835 107.096C140.425 106.173 140.02 104.861 138.931 104.165C137.842 103.47 136.481 103.654 135.891 104.577C135.302 105.499 135.707 106.811 136.796 107.507C137.885 108.203 139.246 108.018 139.835 107.096Z" fill="#FF7F8E"/>
<path d="M139.235 101.706C139.265 102.096 139.39 102.473 139.597 102.805C139.804 103.137 140.088 103.414 140.424 103.613C141.511 104.307 142.872 104.125 143.459 103.217C144.046 102.309 143.645 100.984 142.554 100.29C142.48 100.243 142.403 100.199 142.324 100.159L142.138 100.318L139.235 101.706Z" fill="#FF7F8E"/>
<path d="M139.552 110.624C139.417 110.841 139.329 111.085 139.294 111.338C139.259 111.591 139.278 111.849 139.35 112.095L143.76 112.178C143.743 111.775 143.625 111.382 143.417 111.036C143.21 110.689 142.918 110.401 142.57 110.196C141.499 109.518 140.139 109.704 139.552 110.624Z" fill="#FF7F8E"/>
<path d="M132.365 109.105C132.198 109.384 132.104 109.701 132.095 110.026C132.085 110.351 132.159 110.673 132.31 110.961C133.722 111.223 135.138 111.477 136.276 111.675L136.312 111.623C136.899 110.703 136.494 109.391 135.407 108.697C134.321 108.003 132.956 108.185 132.365 109.105Z" fill="#FF7F8E"/>
<path d="M127.423 107.46C127.593 107.649 127.788 107.814 128.003 107.951C129.089 108.645 130.45 108.463 131.037 107.555C131.205 107.275 131.299 106.956 131.308 106.63C131.317 106.303 131.241 105.98 131.088 105.691L127.423 107.46Z" fill="#FF7F8E"/>
<path d="M146.39 110.227L145.993 110.858C145.582 110.429 145.083 110.095 144.529 109.878L144.414 109.851C143.673 109.716 144.811 109.22 144.811 109.22C144.811 109.22 146.235 109.811 146.39 110.227Z" fill="#94CC79"/>
<path d="M142.943 105.675L142.546 106.31C142.136 105.879 141.636 105.543 141.083 105.326L140.968 105.298C140.23 105.168 141.364 104.668 141.364 104.668C141.364 104.668 142.788 105.259 142.943 105.675Z" fill="#94CC79"/>
<path d="M140.793 107.36L140.397 107.991C139.986 107.562 139.486 107.228 138.933 107.012L138.818 106.984C138.076 106.849 139.215 106.353 139.215 106.353C139.215 106.353 140.635 106.936 140.793 107.36Z" fill="#94CC79"/>
<path d="M136.205 108.947L135.808 109.581C135.398 109.151 134.898 108.815 134.344 108.598L134.229 108.57C133.488 108.439 134.626 107.939 134.626 107.939C134.626 107.939 136.046 108.514 136.205 108.947Z" fill="#94CC79"/>
<path d="M129.557 108.709L129.161 109.343C128.749 108.913 128.248 108.577 127.693 108.36L127.578 108.332C126.84 108.201 127.975 107.702 127.975 107.702C127.975 107.702 129.395 108.289 129.557 108.709Z" fill="#94CC79"/>
<path d="M135.011 106.33L134.614 106.96C134.204 106.529 133.704 106.194 133.151 105.977L133.036 105.949C132.294 105.818 133.432 105.318 133.432 105.318C133.432 105.318 134.852 105.909 135.011 106.33Z" fill="#94CC79"/>
<path d="M151.371 113.376C151.371 113.376 153.921 113.098 152.62 111.421C151.239 111.084 149.793 111.108 148.424 111.492C148.424 111.492 137.569 111.976 136.161 111.199C136.161 111.199 126.325 109.613 125.928 109.113C125.928 109.113 125.135 109.288 127.546 110.358C129.958 111.429 137.672 112.547 137.672 112.547L145.854 113.198L148.797 112.833L151.371 113.376Z" fill="#E7C4C3"/>
<path opacity="0.2" d="M151.371 113.376C151.371 113.376 153.921 113.098 152.62 111.421C151.239 111.084 149.793 111.108 148.424 111.492C148.424 111.492 137.569 111.976 136.161 111.199C136.161 111.199 126.325 109.613 125.928 109.113C125.928 109.113 125.135 109.288 127.546 110.358C129.958 111.429 137.672 112.547 137.672 112.547L145.854 113.198L148.797 112.833L151.371 113.376Z" fill="white"/>
<path d="M143.637 109.486C143.518 109.857 143.489 110.251 143.553 110.635C143.618 111.019 143.773 111.382 144.006 111.694C144.751 112.745 146.08 113.086 146.976 112.456C147.873 111.825 147.988 110.473 147.238 109.403C147.187 109.331 147.131 109.26 147.076 109.192L146.838 109.272L143.637 109.486Z" fill="#FF7F8E"/>
<path d="M143.542 127.948L173.006 101.92L173.91 107.666L144.323 135.225L143.542 127.948Z" fill="#CCCAD6"/>
<path d="M176.83 103.403L173.006 101.92L187.859 59.7212L190.691 61.7197L176.83 103.403Z" fill="#CCCAD6"/>
<g opacity="0.1">
<path opacity="0.1" d="M152.918 164.909C152.947 163.888 153.095 162.874 153.358 161.887L153.164 161.955C152.973 162.927 152.891 163.918 152.918 164.909Z" fill="white"/>
<path opacity="0.1" d="M154.889 179.132C151.803 179.315 142.237 174.913 140.321 172.613C140.069 172.303 139.914 171.925 139.877 171.527C139.821 171.85 139.831 172.182 139.907 172.501C139.984 172.82 140.125 173.12 140.321 173.383C142.237 175.682 151.803 180.08 154.889 179.898C158.149 179.707 169.076 180.294 169.46 175.298C169.487 175.164 169.469 175.024 169.409 174.901C168.528 179.493 158.066 178.954 154.889 179.132Z" fill="white"/>
</g>
<path d="M166.093 86.0985C166.093 86.0985 166.775 85.3055 166.157 84.7345C165.859 84.4569 163.527 83.3942 161.179 82.3553C160.025 81.8477 158.863 81.3481 157.939 80.9516L156.015 80.1307L155.393 79.9721L151.645 79.0165L148.119 78.1164L146.532 78.0728L146.001 84.1753L149.328 90.155L150.447 89.584L150.641 89.4849L153.39 88.8663L161.155 87.1374L164.642 86.3444L165.038 86.2532L166.093 86.0985Z" fill="#FFE09C"/>
<path d="M143.915 77.8865C143.915 77.8865 143.244 84.5164 145.144 87.3437C145.144 87.3437 146.667 89.8339 147.762 90.6904C147.762 90.6904 148.634 91.6738 150.193 89.6832C150.193 89.6832 146.806 86.3365 146.842 82.3752L146.873 78.4099L143.915 77.8865Z" fill="#E7C4C3"/>
<path d="M150.987 84.2735C151.675 83.6049 151.593 82.4047 150.803 81.5929C150.014 80.7811 148.816 80.665 148.128 81.3336C147.44 82.0022 147.523 83.2023 148.312 84.0141C149.101 84.826 150.299 84.9421 150.987 84.2735Z" fill="#FF7F8E"/>
<path d="M156.837 87.1194C157.525 86.4508 157.443 85.2507 156.653 84.4389C155.864 83.627 154.667 83.5109 153.979 84.1795C153.291 84.8481 153.373 86.0483 154.162 86.8601C154.952 87.6719 156.149 87.7881 156.837 87.1194Z" fill="#FF7F8E"/>
<path d="M153.406 88.8702C153.458 88.5327 153.43 88.1876 153.322 87.8634C153.214 87.5392 153.031 87.2455 152.787 87.0065C151.994 86.2134 150.804 86.0786 150.11 86.7487C149.416 87.4189 149.507 88.6164 150.296 89.4293C150.349 89.4852 150.404 89.5381 150.463 89.5879L150.657 89.4888L153.406 88.8702Z" fill="#FF7F8E"/>
<path d="M154.94 81.1896C155.1 81.0311 155.223 80.8406 155.303 80.6307C155.383 80.4209 155.418 80.1964 155.404 79.9722L151.656 79.0166C151.592 79.3611 151.613 79.7163 151.719 80.0504C151.825 80.3846 152.012 80.6874 152.263 80.9318C153.041 81.7487 154.238 81.8637 154.94 81.1896Z" fill="#FF7F8E"/>
<path d="M160.755 83.9337C160.956 83.7278 161.1 83.4738 161.174 83.1961C161.249 82.9183 161.25 82.6262 161.179 82.3476C160.025 81.84 158.863 81.3404 157.939 80.9438L157.895 80.9795C157.209 81.6497 157.292 82.8512 158.082 83.664C158.871 84.4769 160.069 84.6038 160.755 83.9337Z" fill="#FF7F8E"/>
<path d="M164.642 86.3443C164.536 86.1473 164.403 85.9669 164.245 85.809C163.452 84.9961 162.262 84.8811 161.572 85.5513C161.37 85.7564 161.225 86.0105 161.152 86.2887C161.078 86.5668 161.078 86.8593 161.151 87.1374L164.642 86.3443Z" fill="#FF7F8E"/>
<path d="M148.991 80.1586L149.463 79.7026C149.729 80.151 150.089 80.5366 150.518 80.8328L150.609 80.8803C151.216 81.142 150.137 81.3363 150.137 81.3363C150.137 81.3363 149.059 80.5472 148.991 80.1586Z" fill="#94CC79"/>
<path d="M151.038 84.7583L151.506 84.2983C151.771 84.7482 152.131 85.1352 152.561 85.4324L152.652 85.476C153.259 85.7417 152.18 85.936 152.18 85.936C152.18 85.936 151.085 85.1231 151.038 84.7583Z" fill="#94CC79"/>
<path d="M153.207 83.7393L153.679 83.2793C153.945 83.7292 154.305 84.1162 154.734 84.4134L154.825 84.457C155.432 84.7227 154.353 84.917 154.353 84.917C154.353 84.917 153.259 84.1279 153.207 83.7393Z" fill="#94CC79"/>
<path d="M157.443 83.311L157.915 82.8511C158.18 83.3001 158.538 83.6869 158.966 83.9851L159.061 84.0327C159.664 84.2944 158.589 84.4887 158.589 84.4887C158.589 84.4887 157.495 83.6996 157.443 83.311Z" fill="#94CC79"/>
<path d="M163.079 84.8416L163.551 84.3816C163.814 84.8319 164.173 85.219 164.602 85.5157L164.697 85.5593C165.3 85.825 164.225 86.0193 164.225 86.0193C164.225 86.0193 163.13 85.2262 163.079 84.8416Z" fill="#94CC79"/>
<path d="M157.939 85.7734L158.411 85.3174C158.677 85.7658 159.037 86.1513 159.466 86.4475C159.494 86.4673 159.525 86.4832 159.557 86.4951C160.164 86.7568 159.085 86.9551 159.085 86.9551C159.085 86.9551 157.99 86.162 157.939 85.7734Z" fill="#94CC79"/>
<path d="M145.374 76.4668C145.374 76.4668 143.141 76.1932 143.915 77.8863C145.026 78.4539 146.265 78.727 147.512 78.6794C147.512 78.6794 156.876 80.4479 157.923 81.3917C157.923 81.3917 166.002 84.7146 166.252 85.2301C166.252 85.2301 166.962 85.2301 165.121 83.8383C163.281 82.4464 156.924 79.9285 156.924 79.9285L150.07 77.7277L147.484 77.4462L145.374 76.4668Z" fill="#E7C4C3"/>
<path opacity="0.2" d="M145.374 76.4668C145.374 76.4668 143.141 76.1932 143.915 77.8863C145.026 78.4539 146.265 78.727 147.512 78.6794C147.512 78.6794 156.876 80.4479 157.923 81.3917C157.923 81.3917 166.002 84.7146 166.252 85.2301C166.252 85.2301 166.962 85.2301 165.121 83.8383C163.281 82.4464 156.924 79.9285 156.924 79.9285L150.07 77.7277L147.484 77.4462L145.374 76.4668Z" fill="white"/>
<path d="M133.956 85.7021C135.095 85.1044 136.126 84.3204 137.006 83.3824C137.402 82.9145 137.735 82.3871 138.144 81.9271C139.174 80.8271 140.512 80.0642 141.983 79.7383C143.443 79.4178 144.935 79.2727 146.429 79.3061C147.429 79.2424 148.432 79.3634 149.388 79.6629C149.866 79.8193 150.297 80.0945 150.639 80.4628C150.982 80.8311 151.226 81.2804 151.347 81.7685C151.565 82.9581 150.788 84.112 149.856 84.8773C148.988 85.5853 147.967 86.0809 146.873 86.3246C145.982 86.4788 145.083 86.5834 144.18 86.6379C138.874 87.193 134.138 90.0798 129.506 92.7088C125.421 95.0205 123.104 94.9135 118.865 96.9199C118.698 95.651 116.778 96.6344 116.806 95.3536C116.83 94.398 116.878 92.9387 117.782 92.3757C118.833 91.7214 120.558 91.5826 121.748 91.1861C124.482 90.2899 127.152 89.2102 129.74 87.9544C131.17 87.2538 132.576 86.5031 133.956 85.7021Z" fill="#A0616A"/>
<path opacity="0.1" d="M98.911 82.153L119.245 100.552C119.245 100.552 123.081 92.8871 124.231 92.8871C125.381 92.8871 110.429 70.2849 110.429 70.2849C110.429 70.2849 106.593 65.6852 104.293 67.985C101.993 70.2849 95.0758 68.7345 98.911 82.153Z" fill="black"/>
<path d="M98.5264 81.3879L118.849 99.7868C118.849 99.7868 122.684 92.118 123.834 92.118C124.984 92.118 110.028 69.5158 110.028 69.5158C110.028 69.5158 106.193 64.912 103.893 67.2119C101.592 69.5118 94.6911 67.9693 98.5264 81.3879Z" fill="#FA7268"/>
<path d="M131.985 48.9557C132.428 48.4622 132.789 47.8997 133.051 47.2903C134.805 43.325 132.024 38.3445 127.277 36.9805C124.897 36.2866 122.232 36.4253 119.856 35.6878C117.945 35.097 116.334 33.9788 114.581 33.1064C111.287 31.4836 107.642 30.7017 103.972 30.8303C100.383 30.9572 96.4799 32.2182 95.0085 34.9899C92.8588 39.0266 96.813 44.1101 94.4175 48.0397C92.6566 50.9264 88.385 51.779 84.8433 53.032C81.1766 54.2999 77.8382 56.3683 75.0708 59.087C72.2945 61.8627 70.3114 65.6694 71.7075 69.1113C72.5206 71.1296 74.3569 72.7078 75.8164 74.4486C78.2515 77.3049 79.6759 80.8847 79.8688 84.6329C80.0617 88.381 79.0123 92.088 76.8833 95.1792C76.2011 96.1586 75.4039 97.1142 75.1223 98.2245C74.4481 100.873 77.1689 103.538 80.314 104.054C83.4591 104.569 86.7232 103.395 89.1703 101.662C91.4296 100.105 93.248 97.9908 94.4492 95.5242C97.3564 89.3621 95.3139 82.4387 95.0243 75.8047C94.9886 75.0315 95.0243 74.1909 95.5677 73.5842C96.4085 72.6761 97.995 72.6999 99.3514 72.5809C102.861 72.2717 106.094 70.3049 107.581 67.5926C110.425 62.3743 107.113 55.0821 112.083 51.1564C118.337 46.2157 127.34 54.0273 131.985 48.9557Z" fill="#3F3D56"/>
<path opacity="0.1" d="M127.277 36.9646H127.237C129.093 39.1138 129.791 42.0164 128.689 44.5225C128.426 45.1319 128.066 45.6944 127.622 46.1879C122.978 51.2595 113.974 43.4479 107.72 48.3886C102.75 52.3143 106.062 59.6065 103.218 64.8248C101.743 67.5371 98.4986 69.5038 94.9886 69.8131C93.6322 69.9321 92.0457 69.9083 91.2049 70.8163C90.6457 71.423 90.6259 72.2637 90.6616 73.0369C90.9511 79.6709 92.9936 86.5943 90.0865 92.7564C88.8852 95.223 87.0668 97.3375 84.8076 98.8946C82.3605 100.62 79.1003 101.809 75.9512 101.294L75.7331 101.246C76.2709 101.997 76.9529 102.634 77.7394 103.118C78.5259 103.603 79.4011 103.926 80.314 104.069C83.4631 104.581 86.7034 103.391 89.1703 101.662C91.4295 100.105 93.248 97.9908 94.4492 95.5241C97.3564 89.362 95.3138 82.4386 95.0243 75.8047C94.9886 75.0315 95.0243 74.1908 95.5677 73.5841C96.4085 72.6761 97.9949 72.6999 99.3513 72.5809C102.861 72.2716 106.094 70.3048 107.581 67.5926C110.425 62.3742 107.113 55.0821 112.083 51.1564C118.337 46.2156 127.34 54.0273 131.985 48.9557C132.428 48.4622 132.789 47.8997 133.051 47.2902C134.804 43.313 132.024 38.3643 127.277 36.9646Z" fill="black"/>
</svg>
