<svg width="54" height="49" viewBox="0 0 54 49" fill="none" xmlns="http://www.w3.org/2000/svg">
<path fill-rule="evenodd" clip-rule="evenodd" d="M31.5957 3.68421C31.5957 1.64948 33.2395 0 35.2672 0H50.3286C52.3562 0 54 1.64948 54 3.68421V35.3596C54 39.3884 52.7143 42.4244 50.1429 44.4676C47.5714 46.5395 44.1514 47.5755 39.8829 47.5755C37.3629 47.5755 35.1 47.2158 33.0943 46.4964C32.5682 46.3152 32.0687 46.1103 31.5957 45.8817V3.68421ZM33.2486 32.9143C33.2486 30.8796 34.8923 29.2301 36.92 29.2301H37.6C39.6277 29.2301 41.2714 30.8796 41.2714 32.9143V33.9783C41.2714 36.1942 39.9343 37.3021 37.26 37.3021C34.5857 37.3021 33.2486 36.1942 33.2486 33.9783V32.9143Z" fill="#FA7268"/>
<path d="M23.0657 47.5323C23.867 47.1859 24.6005 46.7889 25.2664 46.3414C27.0365 45.1519 29.6765 44.9539 31.5957 45.8817V19.2157C28.2311 22.2897 26.2362 22.5337 22.4043 19.2157V47.7994C22.629 47.7149 22.8495 47.6258 23.0657 47.5323Z" fill="#FA7268"/>
<path fill-rule="evenodd" clip-rule="evenodd" d="M3.85714 45.7194C6.48 47.9064 10.1571 49 14.8886 49C17.7724 49 20.2776 48.5998 22.4043 47.7994V19.2157V3.68421C22.4043 1.64948 20.7605 0 18.7328 0H11.2021H3.67141C1.64375 0 0 1.64947 0 3.68421V10.5687L0 36.2229C-1.80507e-07 40.3668 1.28571 43.5323 3.85714 45.7194ZM16.9714 38.7265C14.1429 38.7265 12.7286 37.6042 12.7286 35.3596V32.9143C12.7286 30.8796 14.3723 29.2301 16.4 29.2301H17.5429C19.5705 29.2301 21.2143 30.8796 21.2143 32.9143V35.3596C21.2143 37.6042 19.8 38.7265 16.9714 38.7265Z" fill="#FA7268"/>
<path d="M20.6637 38.7229C20.6637 40.3798 19.0967 41.7229 17.1637 41.7229C15.2307 41.7229 13.6637 40.3798 13.6637 38.7229C13.6637 37.0661 15.2307 35.7229 17.1637 35.7229C19.0967 35.7229 20.6637 37.0661 20.6637 38.7229Z" fill="#FA7268"/>
<path d="M40.529 36.2229C40.529 37.6036 38.962 38.7229 37.029 38.7229C35.096 38.7229 33.529 37.6036 33.529 36.2229C33.529 34.8422 35.096 33.7229 37.029 33.7229C38.962 33.7229 40.529 34.8422 40.529 36.2229Z" fill="#FA7268"/>
</svg>
